<svg width="512" height="512" viewBox="0 0 512 512" fill="none" xmlns="http://www.w3.org/2000/svg">
<path d="M255.221 252.06C288.746 232.871 311.652 197.143 311.652 155.826C311.652 94.4529 261.721 44.5215 200.348 44.5215C138.975 44.5215 89.0431 94.4529 89.0431 155.826C89.0431 197.143 111.949 232.871 145.474 252.06C61.6184 274.076 0 344.977 0 429.012V456.348C0 462.492 4.98678 467.478 11.1308 467.478C17.2748 467.478 22.2615 462.492 22.2615 456.348V429.012C22.2605 339.768 102.155 267.131 200.348 267.131C298.54 267.131 378.435 339.768 378.435 429.012V456.348C378.435 462.492 383.422 467.478 389.566 467.478C395.71 467.478 400.696 462.492 400.696 456.348V429.012C400.695 344.977 339.077 274.054 255.221 252.06ZM111.305 155.826C111.305 106.719 151.241 66.783 200.348 66.783C249.455 66.783 289.391 106.719 289.391 155.826C289.391 204.933 249.455 244.869 200.348 244.869C151.241 244.869 111.305 204.934 111.305 155.826Z" fill="white"/>
<path d="M405.103 252.35C429.233 236.389 445.217 209.097 445.217 178.088C445.217 128.981 405.281 89.0449 356.174 89.0449C350.03 89.0449 345.043 94.0317 345.043 100.176C345.043 106.32 350.03 111.306 356.174 111.306C392.993 111.306 422.957 141.27 422.957 178.089C422.957 214.908 392.993 244.872 356.174 244.872C350.03 244.872 345.043 249.858 345.043 256.002C345.043 262.146 350.029 267.131 356.173 267.131C429.834 267.131 489.738 322.494 489.738 390.567V411.826C489.738 417.97 494.725 422.957 500.869 422.957C507.013 422.957 512 417.97 512 411.826V390.567C512 326.234 467.122 271.584 405.103 252.35Z" fill="#FCCB32"/>
</svg>
