<svg width="512" height="512" viewBox="0 0 512 512" fill="none" xmlns="http://www.w3.org/2000/svg">
<g clip-path="url(#clip0_42_108)">
<path d="M459 451.998V430.998C459 429.142 458.263 427.361 456.95 426.048C455.637 424.736 453.857 423.998 452 423.998H60C58.1435 423.998 56.363 424.736 55.0503 426.048C53.7375 427.361 53 429.142 53 430.998V451.998C51.1435 451.998 49.363 452.736 48.0503 454.048C46.7375 455.361 46 457.142 46 458.998C46 460.855 46.7375 462.635 48.0503 463.948C49.363 465.261 51.1435 465.998 53 465.998H459C460.857 465.998 462.637 465.261 463.95 463.948C465.263 462.635 466 460.855 466 458.998C466 457.142 465.263 455.361 463.95 454.048C462.637 452.736 460.857 451.998 459 451.998ZM67 451.998V437.998H445V451.998H67Z" fill="black"/>
<path d="M461.284 116.384L258.284 46.3841C256.804 45.8746 255.196 45.8746 253.716 46.3841L50.7162 116.384C49.3403 116.859 48.1467 117.751 47.3014 118.937C46.4561 120.122 46.0012 121.541 46 122.996V164.996C46 166.853 46.7375 168.633 48.0503 169.946C49.363 171.259 51.1435 171.996 53 171.996H459C460.857 171.996 462.637 171.259 463.95 169.946C465.263 168.633 466 166.853 466 164.996V122.996C465.999 121.541 465.544 120.121 464.699 118.936C463.854 117.751 462.66 116.858 461.284 116.383V116.384ZM452 157.996H60V127.988L256 60.4051L452 127.988V157.996Z" fill="black"/>
<path d="M263 360.997V353.297C279.314 349.984 291.035 335.643 291.035 318.997C291.035 302.352 279.314 288.01 263 284.697V243.287C267.08 244.73 270.615 247.398 273.121 250.926C275.626 254.454 276.981 258.67 277 262.998C277 264.855 277.737 266.635 279.05 267.948C280.363 269.261 282.143 269.998 284 269.998C285.856 269.998 287.637 269.261 288.95 267.948C290.262 266.635 291 264.855 291 262.998C290.98 246.373 279.286 232.048 263 228.698V220.998C263 219.142 262.262 217.361 260.95 216.048C259.637 214.736 257.856 213.998 256 213.998C254.143 213.998 252.363 214.736 251.05 216.048C249.737 217.361 249 219.142 249 220.998V228.698C232.685 232.011 220.965 246.353 220.965 262.998C220.965 279.644 232.685 293.985 249 297.298V338.716C244.918 337.273 241.383 334.605 238.876 331.075C236.37 327.545 235.016 323.327 235 318.998C235 317.142 234.262 315.361 232.95 314.048C231.637 312.736 229.856 311.998 228 311.998C226.143 311.998 224.363 312.736 223.05 314.048C221.737 315.361 221 317.142 221 318.998C221.02 335.623 232.713 349.951 249 353.298V360.998C249 362.855 249.737 364.635 251.05 365.948C252.363 367.261 254.143 367.998 256 367.998C257.856 367.998 259.637 367.261 260.95 365.948C262.262 364.635 263 362.855 263 360.998V360.997ZM277 318.997C276.982 323.325 275.628 327.542 273.122 331.07C270.616 334.599 267.08 337.266 263 338.708V299.287C267.08 300.73 270.615 303.398 273.121 306.926C275.626 310.454 276.981 314.67 277 318.998V318.997ZM235 262.997C235.018 258.67 236.373 254.453 238.879 250.925C241.385 247.397 244.92 244.729 249 243.286V282.708C244.919 281.266 241.384 278.599 238.878 275.07C236.372 271.542 235.017 267.325 235 262.997Z" fill="#FCCB32"/>
<path d="M354 290.998C354 236.875 310.123 192.998 256 192.998C201.877 192.998 158 236.875 158 290.998C158 345.122 201.877 388.998 256 388.998C310.1 388.94 353.942 345.098 354 290.998ZM172 290.998C172 244.606 209.608 206.998 256 206.998C302.393 206.998 340 244.606 340 290.998C340 337.391 302.393 374.998 256 374.998C209.629 374.95 172.052 337.37 172 290.998Z" fill="#FCCB32"/>
<path d="M109 409.998C116.732 409.998 123 403.73 123 395.998V199.998C123 192.267 116.732 185.998 109 185.998H81C73.2685 185.998 67 192.267 67 199.998V395.998C67 403.73 73.2685 409.998 81 409.998H109ZM81 199.998H109V395.998H81V199.998Z" fill="black"/>
<path d="M431 409.998C438.732 409.998 445 403.73 445 395.998V199.998C445 192.267 438.732 185.998 431 185.998H403C395.269 185.998 389 192.267 389 199.998V395.998C389 403.73 395.269 409.998 403 409.998H431ZM403 199.998H431V395.998H403V199.998Z" fill="black"/>
</g>
<defs>
<clipPath id="clip0_42_108">
<rect width="420" height="420" fill="white" transform="translate(46 46)"/>
</clipPath>
</defs>
</svg>
