<svg width="512" height="512" viewBox="0 0 512 512" fill="none" xmlns="http://www.w3.org/2000/svg">
<g clip-path="url(#clip0_43_169)">
<path d="M137.529 320.752C160.175 342.917 174.378 369.616 179.289 395.343C180.317 400.731 172.049 409.178 166.64 408.265C140.814 403.909 113.816 390.282 91.1703 368.118C68.5248 345.955 54.3214 319.254 49.4112 293.528C48.3832 288.14 56.6505 279.693 62.0596 280.605C87.8855 284.961 114.884 298.588 137.529 320.752Z" fill="url(#paint0_linear_43_169)"/>
<path d="M137.529 320.752C160.175 342.917 174.378 369.616 179.289 395.343C180.317 400.731 172.049 409.178 166.64 408.265C140.814 403.909 113.816 390.282 91.1703 368.118C68.5248 345.955 54.3214 319.254 49.4112 293.528C48.3832 288.14 56.6505 279.693 62.0596 280.605C87.8855 284.961 114.884 298.588 137.529 320.752Z" fill="url(#paint1_linear_43_169)"/>
<path d="M168.238 268.261C186.396 303.747 192.671 341.271 188.25 373.921C187.324 380.759 174.086 387.532 167.999 384.283C138.932 368.768 112.17 341.727 94.0136 306.24C75.8566 270.753 69.5811 233.23 74.0024 200.579C74.928 193.741 88.1657 186.968 94.2535 190.218C123.319 205.732 150.081 232.774 168.238 268.261Z" fill="url(#paint2_linear_43_169)"/>
<path d="M73.6567 239.468C76.0561 261.409 82.7442 284.216 94.0133 306.24C112.171 341.726 138.932 368.768 167.998 384.283C174.085 387.531 187.323 380.758 188.249 373.921C192.671 341.272 186.396 303.747 168.238 268.26C157.546 247.364 143.869 229.401 128.496 214.99L73.6567 239.468Z" fill="url(#paint3_linear_43_169)"/>
<path d="M374.471 320.752C351.826 342.917 337.622 369.616 332.712 395.343C331.684 400.731 339.951 409.178 345.36 408.265C371.186 403.909 398.185 390.282 420.83 368.118C443.476 345.955 457.679 319.254 462.589 293.528C463.617 288.14 455.35 279.693 449.941 280.605C424.115 284.961 397.117 298.588 374.471 320.752Z" fill="url(#paint4_linear_43_169)"/>
<path d="M374.471 320.752C351.826 342.917 337.622 369.616 332.712 395.343C331.684 400.731 339.951 409.178 345.36 408.265C371.186 403.909 398.185 390.282 420.83 368.118C443.476 345.955 457.679 319.254 462.589 293.528C463.617 288.14 455.35 279.693 449.941 280.605C424.115 284.961 397.117 298.588 374.471 320.752Z" fill="url(#paint5_linear_43_169)"/>
<path d="M343.762 268.261C325.604 303.747 319.33 341.271 323.751 373.921C324.677 380.759 337.914 387.532 344.002 384.283C373.069 368.768 399.83 341.727 417.987 306.24C436.144 270.753 442.42 233.23 437.998 200.579C437.073 193.741 423.835 186.968 417.747 190.218C388.682 205.732 361.92 232.774 343.762 268.261Z" fill="url(#paint6_linear_43_169)"/>
<path d="M438.344 239.468C435.944 261.409 429.256 284.216 417.987 306.24C399.829 341.726 373.069 368.768 344.002 384.283C337.915 387.531 324.678 380.758 323.751 373.921C319.33 341.272 325.604 303.747 343.762 268.26C354.454 247.364 368.131 229.401 383.504 214.99L438.344 239.468Z" fill="url(#paint7_linear_43_169)"/>
<path d="M256 512C344.172 512 415.65 440.523 415.65 352.351C415.65 264.179 344.172 192.701 256 192.701C167.828 192.701 96.3506 264.179 96.3506 352.351C96.3506 440.523 167.828 512 256 512Z" fill="url(#paint8_linear_43_169)"/>
<path d="M256 479.602C326.28 479.602 383.252 422.629 383.252 352.35C383.252 282.07 326.28 225.098 256 225.098C185.721 225.098 128.748 282.07 128.748 352.35C128.748 422.629 185.721 479.602 256 479.602Z" fill="url(#paint9_linear_43_169)"/>
<path d="M256 461.597C316.335 461.597 365.247 412.686 365.247 352.35C365.247 292.015 316.335 243.104 256 243.104C195.665 243.104 146.753 292.015 146.753 352.35C146.753 412.686 195.665 461.597 256 461.597Z" fill="url(#paint10_linear_43_169)"/>
<path d="M96.3506 352.351C96.3506 440.524 167.828 512.001 256 512.001C344.173 512.001 415.65 440.524 415.65 352.351C415.65 351.732 415.634 351.116 415.627 350.498H96.3737C96.3667 351.116 96.3506 351.732 96.3506 352.351Z" fill="url(#paint11_linear_43_169)"/>
<path d="M300.776 505.624C351.082 490.953 391.112 452.197 407.549 402.67L329.793 324.913L312.263 325.774L264.952 278.463L207.292 412.14L300.776 505.624Z" fill="url(#paint12_linear_43_169)"/>
<path d="M321.464 317.659L290.155 310.095C287.242 309.391 284.697 307.625 283.018 305.143L264.969 278.464C262.786 275.237 259.442 273.506 256 273.227C252.559 273.506 249.214 275.237 247.031 278.464L228.983 305.143C227.304 307.625 224.759 309.391 221.846 310.095L190.537 317.659C182.043 319.711 178.505 329.848 183.873 336.741L203.67 362.15C205.511 364.514 206.404 367.48 206.174 370.467L203.693 402.582C203.02 411.293 211.567 417.792 219.782 414.815L250.065 403.84C251.964 403.155 254.006 402.961 256 403.275C257.995 402.962 260.036 403.156 261.935 403.84L292.219 414.815C300.433 417.791 308.98 411.293 308.308 402.582L305.827 370.467C305.596 367.48 306.489 364.514 308.331 362.15L328.127 336.741C333.496 329.848 329.957 319.711 321.464 317.659Z" fill="url(#paint13_linear_43_169)"/>
<path d="M261.935 403.84L292.218 414.815C300.433 417.791 308.98 411.293 308.307 402.582L305.827 370.467C305.596 367.48 306.489 364.514 308.33 362.15L328.127 336.741C333.497 329.849 329.957 319.711 321.464 317.659L290.154 310.095C287.242 309.391 284.697 307.625 283.018 305.143L264.969 278.464C262.785 275.237 259.441 273.506 256 273.227V403.275C257.994 402.961 260.036 403.155 261.935 403.84Z" fill="url(#paint14_linear_43_169)"/>
<path d="M321.464 317.66L290.155 310.096C289.095 309.839 288.075 309.439 287.123 308.906L207.309 412.143C210.44 415.168 215.164 416.491 219.782 414.817L250.065 403.842C251.964 403.158 254.006 402.963 256 403.277C257.995 402.964 260.036 403.159 261.935 403.842L292.219 414.817C300.433 417.794 308.98 411.295 308.308 402.584L305.827 370.47C305.596 367.482 306.49 364.516 308.331 362.152L328.127 336.743C333.496 329.849 329.957 319.712 321.464 317.66Z" fill="url(#paint15_linear_43_169)"/>
<path d="M190.537 317.66L221.846 310.096C222.906 309.839 223.926 309.439 224.878 308.906L304.691 412.143C301.56 415.168 296.837 416.491 292.219 414.817L261.935 403.842C260.036 403.158 257.995 402.963 256 403.277C254.006 402.964 251.965 403.159 250.065 403.842L219.782 414.817C211.568 417.794 203.02 411.295 203.693 402.584L206.174 370.47C206.404 367.482 205.511 364.516 203.67 362.152L183.873 336.743C178.505 329.849 182.043 319.712 190.537 317.66Z" fill="url(#paint16_linear_43_169)"/>
<path d="M182.203 324.916C180.714 328.671 181.072 333.145 183.874 336.742L203.67 362.151C205.511 364.515 206.404 367.481 206.174 370.469L203.693 402.583C203.02 411.294 211.567 417.794 219.782 414.816L250.065 403.841C251.964 403.157 254.006 402.962 256 403.276C257.995 402.963 260.036 403.158 261.935 403.841L292.219 414.816C300.433 417.793 308.98 411.294 308.308 402.583L305.827 370.469C305.704 368.826 305.92 367.175 306.462 365.619L182.203 324.916Z" fill="url(#paint17_linear_43_169)"/>
<path d="M329.809 324.916C331.298 328.671 330.942 333.145 328.139 336.742L308.343 362.151C306.501 364.515 305.608 367.481 305.839 370.469L308.319 402.583C308.992 411.294 300.445 417.794 292.231 414.816L261.947 403.841C260.048 403.157 258.007 402.962 256.012 403.276C254.018 402.963 251.977 403.158 250.077 403.841L219.794 414.816C211.58 417.793 203.032 411.294 203.705 402.583L206.185 370.469C206.309 368.826 206.093 367.175 205.55 365.619L329.809 324.916Z" fill="url(#paint18_linear_43_169)"/>
<path d="M256 192.701C255.338 192.701 254.68 192.718 254.02 192.726L229.381 217.365L409.245 397.228C413.503 382.649 415.66 367.538 415.65 352.35C415.65 264.178 344.173 192.701 256 192.701Z" fill="url(#paint19_linear_43_169)"/>
<path d="M159.624 3.3457V87.6751L256 184.052L352.376 87.6751V3.3457H159.624Z" fill="url(#paint20_linear_43_169)"/>
<path d="M159.624 3.3457V29.5902L255.678 125.644C255.763 125.73 255.879 125.778 256 125.778C256.121 125.778 256.237 125.73 256.322 125.644L352.376 29.5902V3.3457H159.624Z" fill="url(#paint21_linear_43_169)"/>
<path d="M256 140.83C253.963 140.834 251.945 140.435 250.062 139.656C248.18 138.878 246.47 137.735 245.03 136.293L159.624 50.8867V87.6764L256 184.053L352.376 87.6764V50.8867L266.97 136.293C265.53 137.735 263.82 138.878 261.938 139.656C260.055 140.435 258.037 140.834 256 140.83Z" fill="url(#paint22_linear_43_169)"/>
<path d="M159.624 3.3457V29.5902L255.678 125.644C255.763 125.73 255.879 125.778 256 125.778C256.121 125.778 256.237 125.73 256.322 125.644L352.376 29.5902V3.3457H159.624Z" fill="url(#paint23_linear_43_169)"/>
<path d="M256 140.83C253.963 140.834 251.945 140.435 250.062 139.656C248.18 138.878 246.47 137.735 245.03 136.293L159.624 50.8867V87.6764L256 184.053L352.376 87.6764V50.8867L266.97 136.293C265.53 137.735 263.82 138.878 261.938 139.656C260.055 140.435 258.037 140.834 256 140.83Z" fill="url(#paint24_linear_43_169)"/>
<path d="M256 140.83C259.974 140.83 263.946 139.318 266.97 136.293L352.376 50.8867V87.6764L256 184.053L159.624 87.6764V50.8867L245.03 136.293C246.47 137.735 248.18 138.877 250.063 139.656C251.945 140.435 253.963 140.834 256 140.83Z" fill="url(#paint25_linear_43_169)"/>
<path d="M245.432 162.16L163.418 80.1457C157.268 73.9957 147.296 73.9957 141.146 80.1457C134.996 86.2957 134.996 96.2677 141.146 102.418L256 217.274L370.856 102.419C377.006 96.2687 377.006 86.2967 370.856 80.1467C364.706 73.9967 354.734 73.9967 348.584 80.1467L266.57 162.161C260.732 167.998 251.269 167.998 245.432 162.16Z" fill="url(#paint26_linear_43_169)"/>
<path d="M141.144 80.3324L243.907 183.095C250.586 189.774 261.415 189.774 268.094 183.095L370.856 80.3324C370.886 80.3023 370.91 80.2692 370.94 80.2391C370.911 80.209 370.886 80.1758 370.856 80.1457C364.706 73.9957 354.734 73.9957 348.584 80.1457L266.569 162.16C260.733 167.997 251.269 167.997 245.432 162.16L163.417 80.1457C157.267 73.9957 147.295 73.9957 141.145 80.1457C141.115 80.1758 141.091 80.209 141.061 80.2391C141.09 80.2692 141.114 80.3023 141.144 80.3324Z" fill="url(#paint27_linear_43_169)"/>
<path d="M256 217.275L337.076 136.199H292.531L266.568 162.162C260.732 167.998 251.268 167.998 245.431 162.162L219.468 136.199H174.923L256 217.275Z" fill="url(#paint28_linear_43_169)"/>
<path d="M245.961 207.236L256 217.275L358.828 114.447H314.283L266.569 162.161C260.902 167.828 251.828 167.975 245.961 162.64V207.236Z" fill="url(#paint29_linear_43_169)"/>
<path d="M256 228.39C276.791 228.39 293.645 211.535 293.645 190.745C293.645 169.954 276.791 153.1 256 153.1C235.209 153.1 218.355 169.954 218.355 190.745C218.355 211.535 235.209 228.39 256 228.39Z" fill="url(#paint30_linear_43_169)"/>
<path d="M256 212.327C267.92 212.327 277.583 202.664 277.583 190.744C277.583 178.825 267.92 169.162 256 169.162C244.081 169.162 234.418 178.825 234.418 190.744C234.418 202.664 244.081 212.327 256 212.327Z" fill="url(#paint31_linear_43_169)"/>
<path d="M366.936 37.4794H145.065C138.69 37.4794 133.522 32.3112 133.522 25.9363V11.5431C133.522 5.16819 138.69 0 145.065 0H366.937C373.311 0 378.479 5.16819 378.479 11.5431V25.9373C378.479 32.3122 373.311 37.4794 366.936 37.4794Z" fill="url(#paint32_linear_43_169)"/>
</g>
<defs>
<linearGradient id="paint0_linear_43_169" x1="77.8787" y1="287.628" x2="110.692" y2="339.307" gradientUnits="userSpaceOnUse">
<stop stop-color="#FBC56D"/>
<stop offset="1" stop-color="#C5715A"/>
</linearGradient>
<linearGradient id="paint1_linear_43_169" x1="82.4962" y1="333.137" x2="117.508" y2="345.912" gradientUnits="userSpaceOnUse">
<stop stop-color="#8C3D27" stop-opacity="0"/>
<stop offset="1" stop-color="#8C3D27"/>
</linearGradient>
<linearGradient id="paint2_linear_43_169" x1="134.004" y1="232.523" x2="129.406" y2="313.795" gradientUnits="userSpaceOnUse">
<stop stop-color="#FBC56D"/>
<stop offset="1" stop-color="#C5715A"/>
</linearGradient>
<linearGradient id="paint3_linear_43_169" x1="123.559" y1="273.734" x2="143.409" y2="310.951" gradientUnits="userSpaceOnUse">
<stop stop-color="#8C3D27" stop-opacity="0"/>
<stop offset="1" stop-color="#8C3D27"/>
</linearGradient>
<linearGradient id="paint4_linear_43_169" x1="433.842" y1="287.772" x2="401.029" y2="339.451" gradientUnits="userSpaceOnUse">
<stop stop-color="#FBC56D"/>
<stop offset="1" stop-color="#C5715A"/>
</linearGradient>
<linearGradient id="paint5_linear_43_169" x1="429.224" y1="333.281" x2="394.212" y2="346.055" gradientUnits="userSpaceOnUse">
<stop stop-color="#8C3D27" stop-opacity="0"/>
<stop offset="1" stop-color="#8C3D27"/>
</linearGradient>
<linearGradient id="paint6_linear_43_169" x1="377.717" y1="232.668" x2="382.314" y2="313.939" gradientUnits="userSpaceOnUse">
<stop stop-color="#FBC56D"/>
<stop offset="1" stop-color="#C5715A"/>
</linearGradient>
<linearGradient id="paint7_linear_43_169" x1="388.162" y1="273.878" x2="368.311" y2="311.095" gradientUnits="userSpaceOnUse">
<stop stop-color="#8C3D27" stop-opacity="0"/>
<stop offset="1" stop-color="#8C3D27"/>
</linearGradient>
<linearGradient id="paint8_linear_43_169" x1="157.57" y1="253.92" x2="325.943" y2="422.294" gradientUnits="userSpaceOnUse">
<stop stop-color="#FBC56D"/>
<stop offset="1" stop-color="#C5715A"/>
</linearGradient>
<linearGradient id="paint9_linear_43_169" x1="338.649" y1="434.999" x2="170.94" y2="267.289" gradientUnits="userSpaceOnUse">
<stop stop-color="#FBC56D"/>
<stop offset="1" stop-color="#C5715A"/>
</linearGradient>
<linearGradient id="paint10_linear_43_169" x1="176.581" y1="272.931" x2="307.309" y2="403.659" gradientUnits="userSpaceOnUse">
<stop stop-color="#FBC56D"/>
<stop offset="1" stop-color="#C5715A"/>
</linearGradient>
<linearGradient id="paint11_linear_43_169" x1="256" y1="399.062" x2="256" y2="503.851" gradientUnits="userSpaceOnUse">
<stop stop-color="#8C3D27" stop-opacity="0"/>
<stop offset="1" stop-color="#8C3D27"/>
</linearGradient>
<linearGradient id="paint12_linear_43_169" x1="351.617" y1="435.32" x2="219.768" y2="352.328" gradientUnits="userSpaceOnUse">
<stop stop-color="#8C3D27" stop-opacity="0"/>
<stop offset="1" stop-color="#8C3D27"/>
</linearGradient>
<linearGradient id="paint13_linear_43_169" x1="222.744" y1="322.004" x2="282.715" y2="381.973" gradientUnits="userSpaceOnUse">
<stop stop-color="#FBC56D"/>
<stop offset="1" stop-color="#C5715A"/>
</linearGradient>
<linearGradient id="paint14_linear_43_169" x1="291.933" y1="338.355" x2="209.047" y2="372.621" gradientUnits="userSpaceOnUse">
<stop stop-color="#8C3D27" stop-opacity="0"/>
<stop offset="1" stop-color="#8C3D27"/>
</linearGradient>
<linearGradient id="paint15_linear_43_169" x1="270.292" y1="367.771" x2="224.913" y2="348.322" gradientUnits="userSpaceOnUse">
<stop stop-color="#8C3D27" stop-opacity="0"/>
<stop offset="1" stop-color="#8C3D27"/>
</linearGradient>
<linearGradient id="paint16_linear_43_169" x1="241.708" y1="367.771" x2="287.088" y2="348.322" gradientUnits="userSpaceOnUse">
<stop stop-color="#8C3D27" stop-opacity="0"/>
<stop offset="1" stop-color="#8C3D27"/>
</linearGradient>
<linearGradient id="paint17_linear_43_169" x1="242.717" y1="370.047" x2="271.889" y2="323.163" gradientUnits="userSpaceOnUse">
<stop stop-color="#8C3D27" stop-opacity="0"/>
<stop offset="1" stop-color="#8C3D27"/>
</linearGradient>
<linearGradient id="paint18_linear_43_169" x1="267.046" y1="364.126" x2="264.616" y2="318.284" gradientUnits="userSpaceOnUse">
<stop stop-color="#8C3D27" stop-opacity="0"/>
<stop offset="1" stop-color="#8C3D27"/>
</linearGradient>
<linearGradient id="paint19_linear_43_169" x1="334.672" y1="284.905" x2="273.098" y2="177.151" gradientUnits="userSpaceOnUse">
<stop stop-color="#8C3D27" stop-opacity="0"/>
<stop offset="1" stop-color="#8C3D27"/>
</linearGradient>
<linearGradient id="paint20_linear_43_169" x1="263.14" y1="56.8979" x2="302.795" y2="120.145" gradientUnits="userSpaceOnUse">
<stop stop-color="#F9F5F3"/>
<stop offset="1" stop-color="#D8E8F0"/>
</linearGradient>
<linearGradient id="paint21_linear_43_169" x1="223.586" y1="-20.7012" x2="346.734" y2="120.516" gradientUnits="userSpaceOnUse">
<stop stop-color="#BBEC6C"/>
<stop offset="1" stop-color="#81B823"/>
</linearGradient>
<linearGradient id="paint22_linear_43_169" x1="197.426" y1="2.11219" x2="320.573" y2="143.33" gradientUnits="userSpaceOnUse">
<stop stop-color="#BBEC6C"/>
<stop offset="1" stop-color="#81B823"/>
</linearGradient>
<linearGradient id="paint23_linear_43_169" x1="256" y1="66.7604" x2="256" y2="33.5969" gradientUnits="userSpaceOnUse">
<stop stop-color="#78A91F" stop-opacity="0"/>
<stop offset="1" stop-color="#78A91F"/>
</linearGradient>
<linearGradient id="paint24_linear_43_169" x1="294.144" y1="107.425" x2="311.281" y2="124.562" gradientUnits="userSpaceOnUse">
<stop stop-color="#78A91F" stop-opacity="0"/>
<stop offset="1" stop-color="#78A91F"/>
</linearGradient>
<linearGradient id="paint25_linear_43_169" x1="217.856" y1="107.425" x2="200.719" y2="124.562" gradientUnits="userSpaceOnUse">
<stop stop-color="#78A91F" stop-opacity="0"/>
<stop offset="1" stop-color="#78A91F"/>
</linearGradient>
<linearGradient id="paint26_linear_43_169" x1="343.026" y1="178.308" x2="137.162" y2="-27.556" gradientUnits="userSpaceOnUse">
<stop stop-color="#FBC56D"/>
<stop offset="1" stop-color="#C5715A"/>
</linearGradient>
<linearGradient id="paint27_linear_43_169" x1="256" y1="81.9869" x2="256" y2="222.575" gradientUnits="userSpaceOnUse">
<stop stop-color="#FBC56D"/>
<stop offset="1" stop-color="#C5715A"/>
</linearGradient>
<linearGradient id="paint28_linear_43_169" x1="256" y1="163.639" x2="256" y2="209.864" gradientUnits="userSpaceOnUse">
<stop stop-color="#8C3D27" stop-opacity="0"/>
<stop offset="1" stop-color="#8C3D27"/>
</linearGradient>
<linearGradient id="paint29_linear_43_169" x1="303.453" y1="137.466" x2="275.343" y2="166.078" gradientUnits="userSpaceOnUse">
<stop stop-color="#8C3D27" stop-opacity="0"/>
<stop offset="1" stop-color="#8C3D27"/>
</linearGradient>
<linearGradient id="paint30_linear_43_169" x1="234.416" y1="169.16" x2="287.654" y2="222.398" gradientUnits="userSpaceOnUse">
<stop stop-color="#FBC56D"/>
<stop offset="1" stop-color="#C5715A"/>
</linearGradient>
<linearGradient id="paint31_linear_43_169" x1="271.31" y1="206.054" x2="244.956" y2="179.7" gradientUnits="userSpaceOnUse">
<stop stop-color="#FBC56D"/>
<stop offset="1" stop-color="#C5715A"/>
</linearGradient>
<linearGradient id="paint32_linear_43_169" x1="256" y1="11.3774" x2="256" y2="32.2972" gradientUnits="userSpaceOnUse">
<stop stop-color="#FBC56D"/>
<stop offset="1" stop-color="#C5715A"/>
</linearGradient>
<clipPath id="clip0_43_169">
<rect width="512" height="512" fill="white"/>
</clipPath>
</defs>
</svg>
