<svg width="512" height="512" viewBox="0 0 512 512" fill="none" xmlns="http://www.w3.org/2000/svg">
<path d="M471.332 362.829C472.771 359.265 472.115 354.463 472.115 350.72V56.2483C472.115 44.3648 472.499 32.4096 472.115 20.5312C472.115 7.00416 460.631 0 448.502 0H158.285C145.142 0 137.677 11.0131 137.677 23.0554V277.734C137.677 287.944 151.526 291.968 156.759 283.039C158.162 280.643 158.157 278.185 158.157 275.574L158.187 116.803L158.203 36.2701V20.736C158.208 20.1574 165.683 20.48 166.426 20.48L333.414 20.5107L420.454 20.5261L445.486 20.5312C446.751 20.5312 451.63 19.6454 451.63 21.2582V340.352C451.63 340.675 422.748 340.506 420.531 340.506C408.433 340.506 389.811 337.019 382.075 348.902C378.783 353.956 379.105 359.511 379.105 365.215V409.216C379.105 411.807 380.037 413.035 377.421 413.035H266.491C255.59 413.035 252.099 428.385 262.313 432.712C264.98 433.843 268.18 433.516 271.022 433.516H393.19C398.362 433.516 402.335 432.932 406.216 429.051L427.684 407.583L456.515 378.752C461.02 374.241 468.726 368.911 471.332 362.829C471.465 362.496 471.178 363.182 471.332 362.829ZM445.322 360.986L399.585 406.723V368.328C399.585 367.283 398.812 361.764 399.585 360.986C400.282 360.289 405.233 360.986 406.164 360.986H421.939H445.322Z" fill="white"/>
<path d="M144.701 302.383C98.135 302.383 56.023 334.465 43.6428 379.362C31.15 424.684 51.3535 473.923 91.8425 497.67C132.495 521.509 185.503 514.545 218.783 481.265C252.063 447.985 259.031 394.978 235.187 354.33C216.514 322.494 181.627 302.383 144.701 302.383ZM144.701 491.521C97.1314 491.521 58.0863 450.387 60.4774 402.894C62.8684 355.406 105.948 318.511 153.226 323.278C197.309 327.717 231.158 367.258 228.93 411.475C226.703 455.696 188.954 491.521 144.701 491.521Z" fill="#FCCB32"/>
<path d="M194.191 365.733C186.859 359.896 180.807 366.091 176.44 371.564L160.824 391.133L133.622 425.217L113.316 404.512C110.351 401.491 107.474 397.661 102.999 397.041C93.5064 395.736 87.6235 407.563 94.3102 414.378L113.889 434.336L124.871 445.533C127.554 448.272 130.191 450.883 134.405 450.883C140.928 450.924 144.722 444.145 148.295 439.665L169.108 413.584L189.926 387.498C194.754 381.436 203.08 372.819 194.191 365.733C198.615 369.26 189.768 362.21 194.191 365.733ZM187.807 64.2261H410.552C417.531 64.2261 426.859 65.5215 429.286 56.7048C432.624 44.5755 420.168 43.7461 412.17 43.7461H188.185C174.776 43.7461 174.346 64.2261 187.807 64.2261ZM187.807 108.939H365.568C380.416 108.939 379.755 88.4591 365.179 88.4591H190.489C188.692 88.4591 186.834 88.3464 185.083 88.8226C173.906 91.9048 176.21 108.939 187.807 108.939ZM187.807 153.652H262.64C268.37 153.652 274.35 152.746 276.173 146.136C278.405 138.031 271.401 133.172 264.284 133.172H191.467C188.421 133.172 185.405 132.952 182.646 134.57C173.849 139.726 177.602 153.652 187.807 153.652ZM187.807 198.37H302.423C308.833 198.37 321.034 200.536 326.594 196.235C334.484 190.132 329.544 177.89 319.969 177.89H189.752C186.813 177.89 184.023 178.11 181.545 180.025C173.993 185.862 178.247 198.37 187.807 198.37ZM187.807 243.083H397.102C405.483 243.083 411.003 233.539 405.622 226.586C403.031 223.238 399.329 222.603 395.453 222.603H188.221C174.797 222.603 174.32 243.083 187.807 243.083Z" fill="white"/>
</svg>
