<svg width="512" height="512" viewBox="0 0 512 512" fill="none" xmlns="http://www.w3.org/2000/svg">
<path d="M320 133.334H128C112.444 133.345 97.5287 139.53 86.529 150.53C75.5294 161.529 69.3448 176.445 69.3335 192.001V384.001C69.3448 399.557 75.5294 414.472 86.529 425.472C97.5287 436.471 112.444 442.656 128 442.667H320C335.556 442.656 350.472 436.471 361.471 425.472C372.471 414.472 378.656 399.557 378.667 384.001V192.001C378.656 176.445 372.471 161.529 361.471 150.53C350.472 139.53 335.556 133.345 320 133.334Z" fill="#FCCB32"/>
<path d="M442.333 149V341C442.333 364.04 429.107 383.88 409.907 393.48C410.12 390.28 410.333 387.08 410.333 383.667V191.667C410.277 167.638 400.707 144.609 383.715 127.618C366.724 110.627 343.696 101.056 319.667 101H141.107C150.92 82.0133 170.547 69 193.373 69H362.333C406.493 69 442.333 104.84 442.333 149Z" fill="white"/>
</svg>
