<svg width="512" height="512" viewBox="0 0 512 512" fill="none" xmlns="http://www.w3.org/2000/svg">
<path d="M422.667 82.6667H382.667V76C382.667 70.6957 380.56 65.6086 376.809 61.8579C373.058 58.1071 367.971 56 362.667 56C357.362 56 352.275 58.1071 348.525 61.8579C344.774 65.6086 342.667 70.6957 342.667 76V82.6667H276V76C276 70.6957 273.893 65.6086 270.142 61.8579C266.391 58.1071 261.304 56 256 56C250.696 56 245.609 58.1071 241.858 61.8579C238.107 65.6086 236 70.6957 236 76V82.6667H169.333V76C169.333 70.6957 167.226 65.6086 163.475 61.8579C159.725 58.1071 154.638 56 149.333 56C144.029 56 138.942 58.1071 135.191 61.8579C131.44 65.6086 129.333 70.6957 129.333 76V82.6667H89.3333C80.4958 82.6766 72.0231 86.1917 65.7741 92.4407C59.525 98.6898 56.0099 107.162 56 116V422.667C56.0099 431.504 59.525 439.977 65.7741 446.226C72.0231 452.475 80.4958 455.99 89.3333 456H422.667C431.504 455.99 439.977 452.475 446.226 446.226C452.475 439.977 455.99 431.504 456 422.667V116C455.99 107.162 452.475 98.6898 446.226 92.4407C439.977 86.1917 431.504 82.6766 422.667 82.6667ZM356 76C356 74.2319 356.702 72.5362 357.953 71.286C359.203 70.0357 360.899 69.3333 362.667 69.3333C364.435 69.3333 366.13 70.0357 367.381 71.286C368.631 72.5362 369.333 74.2319 369.333 76V116C369.333 117.768 368.631 119.464 367.381 120.714C366.13 121.964 364.435 122.667 362.667 122.667C360.899 122.667 359.203 121.964 357.953 120.714C356.702 119.464 356 117.768 356 116V76ZM249.333 76C249.333 74.2319 250.036 72.5362 251.286 71.286C252.536 70.0357 254.232 69.3333 256 69.3333C257.768 69.3333 259.464 70.0357 260.714 71.286C261.964 72.5362 262.667 74.2319 262.667 76V116C262.667 117.768 261.964 119.464 260.714 120.714C259.464 121.964 257.768 122.667 256 122.667C254.232 122.667 252.536 121.964 251.286 120.714C250.036 119.464 249.333 117.768 249.333 116V76ZM142.667 76C142.667 74.2319 143.369 72.5362 144.619 71.286C145.87 70.0357 147.565 69.3333 149.333 69.3333C151.101 69.3333 152.797 70.0357 154.047 71.286C155.298 72.5362 156 74.2319 156 76V116C156 117.768 155.298 119.464 154.047 120.714C152.797 121.964 151.101 122.667 149.333 122.667C147.565 122.667 145.87 121.964 144.619 120.714C143.369 119.464 142.667 117.768 142.667 116V76ZM89.3333 96H129.333V116C129.333 121.304 131.44 126.391 135.191 130.142C138.942 133.893 144.029 136 149.333 136C154.638 136 159.725 133.893 163.475 130.142C167.226 126.391 169.333 121.304 169.333 116V96H236V116C236 121.304 238.107 126.391 241.858 130.142C245.609 133.893 250.696 136 256 136C261.304 136 266.391 133.893 270.142 130.142C273.893 126.391 276 121.304 276 116V96H342.667V116C342.667 121.304 344.774 126.391 348.525 130.142C352.275 133.893 357.362 136 362.667 136C367.971 136 373.058 133.893 376.809 130.142C380.56 126.391 382.667 121.304 382.667 116V96H422.667C427.969 96.0062 433.053 98.1153 436.802 101.865C440.551 105.614 442.66 110.698 442.667 116V162.667H69.3333V116C69.3395 110.698 71.4486 105.614 75.198 101.865C78.9474 98.1153 84.0309 96.0062 89.3333 96ZM422.667 442.667H89.3333C84.0309 442.66 78.9474 440.551 75.198 436.802C71.4486 433.053 69.3395 427.969 69.3333 422.667V176H442.667V422.667C442.66 427.969 440.551 433.053 436.802 436.802C433.053 440.551 427.969 442.66 422.667 442.667Z" fill="black"/>
<path d="M409.334 222.666H382.667C380.899 222.666 379.204 223.369 377.953 224.619C376.703 225.869 376.001 227.565 376.001 229.333V255.999C376.001 257.768 376.703 259.463 377.953 260.714C379.204 261.964 380.899 262.666 382.667 262.666H409.334C411.102 262.666 412.798 261.964 414.048 260.714C415.298 259.463 416.001 257.768 416.001 255.999V229.333C416.001 227.565 415.298 225.869 414.048 224.619C412.798 223.369 411.102 222.666 409.334 222.666ZM402.667 249.333H389.334V235.999H402.667V249.333ZM276.001 355.999H249.334C247.566 355.999 245.87 356.702 244.62 357.952C243.37 359.202 242.667 360.898 242.667 362.666V389.333C242.667 391.101 243.37 392.797 244.62 394.047C245.87 395.297 247.566 395.999 249.334 395.999H276.001C277.769 395.999 279.464 395.297 280.715 394.047C281.965 392.797 282.667 391.101 282.667 389.333V362.666C282.667 360.898 281.965 359.202 280.715 357.952C279.464 356.702 277.769 355.999 276.001 355.999ZM269.334 382.666H256.001V369.333H269.334V382.666ZM209.334 222.666H182.667C180.899 222.666 179.204 223.369 177.953 224.619C176.703 225.869 176.001 227.565 176.001 229.333V255.999C176.001 257.768 176.703 259.463 177.953 260.714C179.204 261.964 180.899 262.666 182.667 262.666H209.334C211.102 262.666 212.798 261.964 214.048 260.714C215.298 259.463 216.001 257.768 216.001 255.999V229.333C216.001 227.565 215.298 225.869 214.048 224.619C212.798 223.369 211.102 222.666 209.334 222.666ZM202.667 249.333H189.334V235.999H202.667V249.333ZM142.667 289.333H116.001C114.233 289.333 112.537 290.035 111.287 291.285C110.036 292.536 109.334 294.231 109.334 295.999V322.666C109.334 324.434 110.036 326.13 111.287 327.38C112.537 328.63 114.233 329.333 116.001 329.333H142.667C144.435 329.333 146.131 328.63 147.381 327.38C148.632 326.13 149.334 324.434 149.334 322.666V295.999C149.334 294.231 148.632 292.536 147.381 291.285C146.131 290.035 144.435 289.333 142.667 289.333ZM136.001 315.999H122.667V302.666H136.001V315.999ZM209.334 289.333H182.667C180.899 289.333 179.204 290.035 177.953 291.285C176.703 292.536 176.001 294.231 176.001 295.999V322.666C176.001 324.434 176.703 326.13 177.953 327.38C179.204 328.63 180.899 329.333 182.667 329.333H209.334C211.102 329.333 212.798 328.63 214.048 327.38C215.298 326.13 216.001 324.434 216.001 322.666V295.999C216.001 294.231 215.298 292.536 214.048 291.285C212.798 290.035 211.102 289.333 209.334 289.333ZM202.667 315.999H189.334V302.666H202.667V315.999ZM142.667 355.999H116.001C114.233 355.999 112.537 356.702 111.287 357.952C110.036 359.202 109.334 360.898 109.334 362.666V389.333C109.334 391.101 110.036 392.797 111.287 394.047C112.537 395.297 114.233 395.999 116.001 395.999H142.667C144.435 395.999 146.131 395.297 147.381 394.047C148.632 392.797 149.334 391.101 149.334 389.333V362.666C149.334 360.898 148.632 359.202 147.381 357.952C146.131 356.702 144.435 355.999 142.667 355.999ZM136.001 382.666H122.667V369.333H136.001V382.666ZM209.334 355.999H182.667C180.899 355.999 179.204 356.702 177.953 357.952C176.703 359.202 176.001 360.898 176.001 362.666V389.333C176.001 391.101 176.703 392.797 177.953 394.047C179.204 395.297 180.899 395.999 182.667 395.999H209.334C211.102 395.999 212.798 395.297 214.048 394.047C215.298 392.797 216.001 391.101 216.001 389.333V362.666C216.001 360.898 215.298 359.202 214.048 357.952C212.798 356.702 211.102 355.999 209.334 355.999ZM202.667 382.666H189.334V369.333H202.667V382.666ZM409.334 289.333H382.667C380.899 289.333 379.204 290.035 377.953 291.285C376.703 292.536 376.001 294.231 376.001 295.999V322.666C376.001 324.434 376.703 326.13 377.953 327.38C379.204 328.63 380.899 329.333 382.667 329.333H409.334C411.102 329.333 412.798 328.63 414.048 327.38C415.298 326.13 416.001 324.434 416.001 322.666V295.999C416.001 294.231 415.298 292.536 414.048 291.285C412.798 290.035 411.102 289.333 409.334 289.333ZM402.667 315.999H389.334V302.666H402.667V315.999ZM409.334 355.999H382.667C380.899 355.999 379.204 356.702 377.953 357.952C376.703 359.202 376.001 360.898 376.001 362.666V389.333C376.001 391.101 376.703 392.797 377.953 394.047C379.204 395.297 380.899 395.999 382.667 395.999H409.334C411.102 395.999 412.798 395.297 414.048 394.047C415.298 392.797 416.001 391.101 416.001 389.333V362.666C416.001 360.898 415.298 359.202 414.048 357.952C412.798 356.702 411.102 355.999 409.334 355.999ZM402.667 382.666H389.334V369.333H402.667V382.666ZM342.667 355.999H316.001C314.233 355.999 312.537 356.702 311.287 357.952C310.036 359.202 309.334 360.898 309.334 362.666V389.333C309.334 391.101 310.036 392.797 311.287 394.047C312.537 395.297 314.233 395.999 316.001 395.999H342.667C344.435 395.999 346.131 395.297 347.381 394.047C348.632 392.797 349.334 391.101 349.334 389.333V362.666C349.334 360.898 348.632 359.202 347.381 357.952C346.131 356.702 344.435 355.999 342.667 355.999ZM336.001 382.666H322.667V369.333H336.001V382.666Z" fill="black"/>
<path d="M350.007 250.82L316.673 245.727L301.702 213.834C301.164 212.688 300.31 211.719 299.242 211.04C298.173 210.361 296.933 210 295.667 210C294.4 210 293.16 210.361 292.092 211.04C291.023 211.719 290.17 212.688 289.632 213.834L274.667 245.727L241.333 250.82C240.121 251.005 238.983 251.52 238.045 252.309C237.106 253.099 236.404 254.132 236.015 255.295C235.625 256.458 235.564 257.706 235.839 258.901C236.113 260.096 236.711 261.193 237.568 262.07L261.886 286.992L256.136 322.264C255.937 323.497 256.088 324.761 256.573 325.912C257.058 327.064 257.856 328.055 258.877 328.775C259.898 329.495 261.1 329.913 262.347 329.982C263.594 330.052 264.836 329.769 265.93 329.167L295.667 312.731L325.403 329.167C326.498 329.773 327.742 330.058 328.991 329.99C330.24 329.922 331.445 329.503 332.468 328.783C333.491 328.062 334.29 327.068 334.775 325.915C335.259 324.761 335.41 323.495 335.208 322.26L329.458 286.988L353.776 262.066C354.633 261.189 355.231 260.092 355.506 258.897C355.78 257.702 355.719 256.454 355.33 255.291C354.94 254.128 354.238 253.095 353.3 252.305C352.361 251.516 351.223 251 350.011 250.816L350.007 250.82ZM317.562 280.084C316.833 280.831 316.29 281.738 315.976 282.733C315.661 283.729 315.585 284.783 315.753 285.813L319.837 310.856L298.89 299.272C297.903 298.727 296.793 298.441 295.665 298.441C294.537 298.441 293.427 298.727 292.44 299.272L271.493 310.856L275.577 285.813C275.745 284.783 275.669 283.729 275.354 282.733C275.04 281.738 274.497 280.831 273.768 280.084L256.167 262.041L280.194 258.374C281.276 258.209 282.301 257.779 283.178 257.124C284.055 256.469 284.757 255.608 285.222 254.617L295.667 232.357L306.113 254.612C306.578 255.603 307.28 256.465 308.156 257.12C309.033 257.775 310.058 258.205 311.14 258.37L335.167 262.037L317.562 280.084Z" fill="#FCCB32"/>
</svg>
