<svg width="512" height="512" viewBox="0 0 512 512" fill="none" xmlns="http://www.w3.org/2000/svg">
<g clip-path="url(#clip0_42_8)">
<path d="M256 512C397.385 512 512 397.385 512 256C512 114.615 397.385 0 256 0C114.615 0 0 114.615 0 256C0 397.385 114.615 512 256 512Z" fill="#FCCB32"/>
<path d="M148.593 371.482L286.688 509.577C402.978 495.848 495.041 404.593 509.577 288.303L370.675 149.4L148.593 371.482Z" fill="#FCAB32"/>
<path d="M377.136 312.531C388.442 323.837 388.442 343.218 377.136 354.524L354.524 377.136C343.218 388.442 323.836 388.442 312.53 377.136L134.864 199.471C123.558 188.165 123.558 168.783 134.864 157.477L158.284 134.058C169.59 122.752 188.972 122.752 200.277 134.058L377.136 312.531Z" fill="white"/>
<path d="M283.457 218.045L218.044 283.458L312.53 377.136C323.836 388.442 343.217 388.442 354.523 377.136L377.943 353.717C389.249 342.411 389.249 323.029 377.943 311.723L283.457 218.045Z" fill="#D6D6D6"/>
<path d="M312.53 134.864C323.836 123.558 343.218 123.558 354.524 134.864L377.943 158.284C389.249 169.59 389.249 188.972 377.943 200.277L199.47 377.136C188.164 388.442 168.782 388.442 157.476 377.136L134.864 354.524C123.558 343.218 123.558 323.836 134.864 312.53L312.53 134.864Z" fill="white"/>
</g>
<defs>
<clipPath id="clip0_42_8">
<rect width="512" height="512" fill="white"/>
</clipPath>
</defs>
</svg>
