<svg width="512" height="512" viewBox="0 0 512 512" fill="none" xmlns="http://www.w3.org/2000/svg">
<path d="M66.0031 456C64.4157 456 62.851 455.623 61.4383 454.899C60.0257 454.175 58.8057 453.125 57.8793 451.836C56.953 450.547 56.3468 449.055 56.111 447.486C55.8751 445.916 56.0164 444.312 56.5231 442.808L84.7031 359.192C65.9052 328.055 55.9805 292.371 56.0031 256C56.0031 145.72 145.723 56 256.003 56C366.283 56 456.003 145.72 456.003 256C456.003 366.28 366.283 456 256.003 456C219.633 456.023 183.949 446.097 152.815 427.296L69.1951 455.476C68.1511 455.828 67.0751 456 66.0031 456ZM154.083 406.316C155.963 406.316 157.831 406.848 159.455 407.884C188.3 426.267 221.798 436.022 256.003 436C355.255 436 436.003 355.252 436.003 256C436.003 156.748 355.255 76 256.003 76C156.751 76 76.0031 156.748 76.0031 256C75.9796 290.204 85.7364 323.702 104.123 352.544C105.747 355.1 106.131 358.248 105.167 361.116L81.9191 430.084L150.891 406.84C151.931 406.488 153.007 406.316 154.083 406.316Z" fill="black"/>
<path d="M247.483 327.377C244.831 327.377 242.288 326.323 240.412 324.448C238.537 322.573 237.483 320.029 237.483 317.377V301.877C237.483 271.793 255.823 258.237 270.559 247.341C283.951 237.441 294.527 229.617 294.527 211.313C294.527 187.661 279.495 172.377 256.231 172.377C229.607 172.377 217.479 194.149 217.479 214.377C217.479 217.029 216.426 219.573 214.551 221.448C212.675 223.323 210.132 224.377 207.479 224.377C204.827 224.377 202.284 223.323 200.408 221.448C198.533 219.573 197.479 217.029 197.479 214.377C197.479 183.565 217.659 152.377 256.231 152.377C290.555 152.377 314.527 176.613 314.527 211.313C314.527 239.705 296.739 252.857 282.447 263.425C268.499 273.737 257.479 281.881 257.479 301.877V317.377C257.48 318.69 257.222 319.99 256.72 321.203C256.218 322.417 255.481 323.519 254.553 324.448C253.625 325.376 252.523 326.113 251.31 326.616C250.097 327.118 248.797 327.377 247.483 327.377Z" fill="#FCCB32"/>
<path d="M247.23 365.623C252.753 365.623 257.23 361.146 257.23 355.623C257.23 350.1 252.753 345.623 247.23 345.623C241.708 345.623 237.23 350.1 237.23 355.623C237.23 361.146 241.708 365.623 247.23 365.623Z" fill="#FCCB32"/>
</svg>
