<svg width="512" height="512" viewBox="0 0 512 512" fill="none" xmlns="http://www.w3.org/2000/svg">
<g clip-path="url(#clip0_43_204)">
<path d="M110.551 379.333C140.822 383.243 167.231 395.536 185.93 412.472C189.847 416.019 188.388 427.311 183.7 429.746C161.312 441.377 132.646 446.558 102.375 442.649C72.1036 438.739 45.6945 426.446 26.9954 409.51C23.0791 405.963 24.5378 394.671 29.2261 392.236C51.6136 380.605 80.2796 375.424 110.551 379.333Z" fill="url(#paint0_linear_43_204)"/>
<path d="M110.551 379.333C140.822 383.243 167.231 395.536 185.93 412.472C189.847 416.019 188.388 427.311 183.7 429.746C161.312 441.377 132.646 446.558 102.375 442.649C72.1036 438.739 45.6945 426.446 26.9954 409.51C23.0791 405.963 24.5378 394.671 29.2261 392.236C51.6136 380.605 80.2796 375.424 110.551 379.333Z" fill="url(#paint1_linear_43_204)"/>
<path d="M114.09 336.943C146.463 350.978 171.861 373.091 187.209 397.89C190.423 403.083 185.187 415.16 179.2 416.364C150.608 422.115 117.106 418.69 84.7339 404.656C52.3604 390.621 26.9622 368.508 11.6143 343.708C8.4007 338.515 13.6361 326.439 19.6235 325.234C48.2152 319.485 81.7161 322.908 114.09 336.943Z" fill="url(#paint2_linear_43_204)"/>
<path d="M114.09 336.943C146.463 350.978 171.861 373.091 187.209 397.89C190.423 403.083 185.187 415.16 179.2 416.364C150.608 422.115 117.106 418.69 84.7339 404.656C52.3604 390.621 26.9622 368.508 11.6143 343.708C8.4007 338.515 13.6361 326.439 19.6235 325.234C48.2152 319.485 81.7161 322.908 114.09 336.943Z" fill="url(#paint3_linear_43_204)"/>
<path d="M172.381 268.894C185.348 301.71 187.672 335.306 180.988 363.694C179.588 369.639 167.346 374.476 162.262 371.094C137.978 354.942 116.71 328.831 103.743 296.016C90.7763 263.201 88.4522 229.605 95.1363 201.217C96.5358 195.272 108.778 190.435 113.862 193.817C138.146 209.968 159.414 236.078 172.381 268.894Z" fill="url(#paint4_linear_43_204)"/>
<path d="M172.381 268.894C185.348 301.71 187.672 335.306 180.988 363.694C179.588 369.639 167.346 374.476 162.262 371.094C137.978 354.942 116.71 328.831 103.743 296.016C90.7763 263.201 88.4522 229.605 95.1363 201.217C96.5358 195.272 108.778 190.435 113.862 193.817C138.146 209.968 159.414 236.078 172.381 268.894Z" fill="url(#paint5_linear_43_204)"/>
<path d="M125.13 270.13C158.138 299.806 179.601 336.331 188 372.046C189.759 379.525 178.689 391.839 171.065 390.883C134.661 386.319 96.066 368.85 63.0571 339.173C30.0481 309.497 8.58528 272.972 0.186474 237.257C-1.5724 229.778 9.49785 217.464 17.1216 218.42C53.5248 222.985 92.1206 240.454 125.13 270.13Z" fill="url(#paint6_linear_43_204)"/>
<path d="M15.3086 277.837C26.5375 299.699 42.5721 320.755 63.0581 339.173C96.0671 368.849 134.662 386.318 171.066 390.883C178.69 391.839 189.76 379.526 188.001 372.046C179.602 336.331 158.14 299.805 125.131 270.129C105.694 252.654 84.3182 239.417 62.5953 230.551L15.3086 277.837Z" fill="url(#paint7_linear_43_204)"/>
<path d="M401.449 379.333C371.177 383.243 344.768 395.536 326.069 412.472C322.153 416.019 323.612 427.311 328.3 429.746C350.687 441.377 379.353 446.558 409.625 442.649C439.896 438.739 466.305 426.446 485.004 409.51C488.92 405.963 487.462 394.671 482.773 392.236C460.386 380.605 431.72 375.424 401.449 379.333Z" fill="url(#paint8_linear_43_204)"/>
<path d="M401.449 379.333C371.177 383.243 344.768 395.536 326.069 412.472C322.153 416.019 323.612 427.311 328.3 429.746C350.687 441.377 379.353 446.558 409.625 442.649C439.896 438.739 466.305 426.446 485.004 409.51C488.92 405.963 487.462 394.671 482.773 392.236C460.386 380.605 431.72 375.424 401.449 379.333Z" fill="url(#paint9_linear_43_204)"/>
<path d="M397.91 336.943C365.536 350.978 340.138 373.091 324.79 397.89C321.576 403.083 326.812 415.16 332.799 416.364C361.391 422.115 394.893 418.69 427.265 404.656C459.639 390.621 485.037 368.508 500.385 343.708C503.599 338.515 498.363 326.439 492.376 325.234C463.784 319.485 430.283 322.908 397.91 336.943Z" fill="url(#paint10_linear_43_204)"/>
<path d="M397.91 336.943C365.536 350.978 340.138 373.091 324.79 397.89C321.576 403.083 326.812 415.16 332.799 416.364C361.391 422.115 394.893 418.69 427.265 404.656C459.639 390.621 485.037 368.508 500.385 343.708C503.599 338.515 498.363 326.439 492.376 325.234C463.784 319.485 430.283 322.908 397.91 336.943Z" fill="url(#paint11_linear_43_204)"/>
<path d="M339.618 268.894C326.651 301.71 324.327 335.306 331.011 363.694C332.411 369.639 344.653 374.476 349.737 371.094C374.021 354.942 395.289 328.831 408.256 296.016C421.223 263.201 423.547 229.605 416.863 201.217C415.463 195.272 403.221 190.435 398.137 193.817C373.853 209.968 352.585 236.078 339.618 268.894Z" fill="url(#paint12_linear_43_204)"/>
<path d="M339.618 268.894C326.651 301.71 324.327 335.306 331.011 363.694C332.411 369.639 344.653 374.476 349.737 371.094C374.021 354.942 395.289 328.831 408.256 296.016C421.223 263.201 423.547 229.605 416.863 201.217C415.463 195.272 403.221 190.435 398.137 193.817C373.853 209.968 352.585 236.078 339.618 268.894Z" fill="url(#paint13_linear_43_204)"/>
<path d="M386.87 270.13C353.861 299.806 332.398 336.331 323.999 372.046C322.24 379.525 333.31 391.839 340.934 390.883C377.338 386.319 415.933 368.85 448.942 339.173C481.951 309.497 503.414 272.972 511.813 237.257C513.571 229.778 502.501 217.464 494.877 218.42C458.474 222.985 419.879 240.454 386.87 270.13Z" fill="url(#paint14_linear_43_204)"/>
<path d="M496.691 277.837C485.462 299.699 469.427 320.755 448.941 339.173C415.932 368.849 377.337 386.318 340.933 390.883C333.309 391.839 322.239 379.526 323.998 372.046C332.397 336.331 353.86 299.805 386.869 270.129C406.306 252.654 427.681 239.417 449.404 230.551L496.691 277.837Z" fill="url(#paint15_linear_43_204)"/>
<path d="M256 512C344.172 512 415.649 440.523 415.649 352.351C415.649 264.179 344.172 192.701 256 192.701C167.828 192.701 96.3501 264.179 96.3501 352.351C96.3501 440.523 167.828 512 256 512Z" fill="url(#paint16_linear_43_204)"/>
<path d="M256 479.602C326.279 479.602 383.252 422.629 383.252 352.35C383.252 282.07 326.279 225.098 256 225.098C185.72 225.098 128.748 282.07 128.748 352.35C128.748 422.629 185.72 479.602 256 479.602Z" fill="url(#paint17_linear_43_204)"/>
<path d="M256 461.597C316.335 461.597 365.246 412.686 365.246 352.35C365.246 292.015 316.335 243.104 256 243.104C195.664 243.104 146.753 292.015 146.753 352.35C146.753 412.686 195.664 461.597 256 461.597Z" fill="url(#paint18_linear_43_204)"/>
<path d="M96.3501 352.351C96.3501 440.524 167.827 512.001 256 512.001C344.172 512.001 415.649 440.524 415.649 352.351C415.649 351.732 415.633 351.116 415.626 350.498H96.3732C96.3662 351.116 96.3501 351.732 96.3501 352.351Z" fill="url(#paint19_linear_43_204)"/>
<path d="M300.775 505.624C351.081 490.953 391.111 452.197 407.548 402.67L329.792 324.913L312.262 325.774L264.951 278.463L207.291 412.14L300.775 505.624Z" fill="url(#paint20_linear_43_204)"/>
<path d="M321.463 317.659L290.154 310.095C287.242 309.391 284.697 307.625 283.017 305.143L264.969 278.464C262.785 275.237 259.441 273.506 256 273.227C252.558 273.506 249.213 275.237 247.031 278.464L228.982 305.143C227.303 307.625 224.758 309.391 221.845 310.095L190.536 317.659C182.043 319.711 178.504 329.848 183.873 336.741L203.669 362.15C205.511 364.514 206.404 367.48 206.173 370.467L203.692 402.582C203.02 411.293 211.566 417.792 219.781 414.815L250.065 403.84C251.964 403.155 254.005 402.961 256 403.275C257.994 402.962 260.035 403.156 261.935 403.84L292.218 414.815C300.432 417.791 308.98 411.293 308.307 402.582L305.826 370.467C305.595 367.48 306.489 364.514 308.33 362.15L328.127 336.741C333.495 329.848 329.957 319.711 321.463 317.659Z" fill="url(#paint21_linear_43_204)"/>
<path d="M261.935 403.84L292.218 414.815C300.432 417.791 308.979 411.293 308.307 402.582L305.826 370.467C305.595 367.48 306.489 364.514 308.33 362.15L328.126 336.741C333.496 329.849 329.956 319.711 321.463 317.659L290.154 310.095C287.241 309.391 284.696 307.625 283.017 305.143L264.969 278.464C262.785 275.237 259.441 273.506 256 273.227V403.275C257.994 402.961 260.035 403.155 261.935 403.84Z" fill="url(#paint22_linear_43_204)"/>
<path d="M321.463 317.66L290.154 310.096C289.094 309.839 288.074 309.439 287.122 308.906L207.308 412.143C210.439 415.168 215.163 416.491 219.781 414.817L250.064 403.842C251.964 403.158 254.005 402.963 255.999 403.277C257.994 402.964 260.035 403.159 261.934 403.842L292.218 414.817C300.432 417.794 308.979 411.295 308.307 402.584L305.826 370.47C305.595 367.482 306.489 364.516 308.33 362.152L328.126 336.743C333.495 329.849 329.956 319.712 321.463 317.66Z" fill="url(#paint23_linear_43_204)"/>
<path d="M190.536 317.66L221.845 310.096C222.905 309.839 223.925 309.439 224.877 308.906L304.691 412.143C301.56 415.168 296.836 416.491 292.218 414.817L261.935 403.842C260.036 403.158 257.994 402.963 256 403.277C254.005 402.964 251.964 403.159 250.065 403.842L219.781 414.817C211.567 417.794 203.02 411.295 203.692 402.584L206.173 370.47C206.404 367.482 205.511 364.516 203.669 362.152L183.873 336.743C178.504 329.849 182.043 319.712 190.536 317.66Z" fill="url(#paint24_linear_43_204)"/>
<path d="M182.202 324.916C180.713 328.671 181.071 333.145 183.873 336.742L203.669 362.151C205.51 364.515 206.403 367.481 206.173 370.469L203.692 402.583C203.019 411.294 211.566 417.794 219.781 414.816L250.064 403.841C251.964 403.157 254.005 402.962 255.999 403.276C257.994 402.963 260.035 403.158 261.934 403.841L292.218 414.816C300.432 417.793 308.979 411.294 308.307 402.583L305.826 370.469C305.703 368.826 305.919 367.175 306.461 365.619L182.202 324.916Z" fill="url(#paint25_linear_43_204)"/>
<path d="M329.809 324.916C331.298 328.671 330.941 333.145 328.138 336.742L308.342 362.151C306.501 364.515 305.608 367.481 305.838 370.469L308.319 402.583C308.992 411.294 300.444 417.794 292.23 414.816L261.947 403.841C260.047 403.157 258.006 402.962 256.012 403.276C254.017 402.963 251.976 403.158 250.076 403.841L219.793 414.816C211.579 417.793 203.032 411.294 203.704 402.583L206.185 370.469C206.308 368.826 206.092 367.175 205.549 365.619L329.809 324.916Z" fill="url(#paint26_linear_43_204)"/>
<path d="M255.999 192.701C255.337 192.701 254.679 192.718 254.019 192.726L229.38 217.365L409.244 397.228C413.502 382.649 415.659 367.538 415.649 352.35C415.649 264.178 344.172 192.701 255.999 192.701Z" fill="url(#paint27_linear_43_204)"/>
<path d="M159.623 3.3457V87.6751L256 184.052L352.376 87.6751V3.3457H159.623Z" fill="url(#paint28_linear_43_204)"/>
<path d="M159.623 3.3457V29.5902L255.677 125.644C255.763 125.73 255.879 125.778 256 125.778C256.12 125.778 256.236 125.73 256.322 125.644L352.376 29.5902V3.3457H159.623Z" fill="url(#paint29_linear_43_204)"/>
<path d="M159.623 3.3457V29.5902L255.677 125.644C255.763 125.73 255.879 125.778 256 125.778C256.12 125.778 256.236 125.73 256.322 125.644L352.376 29.5902V3.3457H159.623Z" fill="url(#paint30_linear_43_204)"/>
<path d="M256 140.83C253.962 140.834 251.944 140.435 250.062 139.656C248.179 138.878 246.469 137.735 245.03 136.293L159.623 50.8867V87.6764L256 184.053L352.376 87.6764V50.8867L266.969 136.293C265.53 137.735 263.82 138.878 261.937 139.656C260.055 140.435 258.037 140.834 256 140.83Z" fill="url(#paint31_linear_43_204)"/>
<path d="M256 140.83C253.962 140.834 251.944 140.435 250.062 139.656C248.179 138.878 246.469 137.735 245.03 136.293L159.623 50.8867V87.6764L256 184.053L352.376 87.6764V50.8867L266.969 136.293C265.53 137.735 263.82 138.878 261.937 139.656C260.055 140.435 258.037 140.834 256 140.83Z" fill="url(#paint32_linear_43_204)"/>
<path d="M256 140.83C259.973 140.83 263.946 139.318 266.969 136.293L352.376 50.8867V87.6764L256 184.053L159.623 87.6764V50.8867L245.03 136.293C246.469 137.735 248.18 138.877 250.062 139.656C251.945 140.435 253.962 140.834 256 140.83Z" fill="url(#paint33_linear_43_204)"/>
<path d="M245.431 162.16L163.417 80.1457C157.267 73.9957 147.295 73.9957 141.145 80.1457C134.995 86.2957 134.995 96.2677 141.145 102.418L255.999 217.274L370.855 102.419C377.005 96.2687 377.005 86.2967 370.855 80.1467C364.705 73.9967 354.733 73.9967 348.583 80.1467L266.569 162.161C260.731 167.998 251.268 167.998 245.431 162.16Z" fill="url(#paint34_linear_43_204)"/>
<path d="M141.144 80.3324L243.906 183.095C250.585 189.774 261.415 189.774 268.094 183.095L370.855 80.3324C370.885 80.3023 370.909 80.2692 370.94 80.2391C370.91 80.209 370.885 80.1758 370.855 80.1457C364.705 73.9957 354.733 73.9957 348.583 80.1457L266.569 162.16C260.732 167.997 251.268 167.997 245.431 162.16L163.417 80.1457C157.267 73.9957 147.295 73.9957 141.145 80.1457C141.115 80.1758 141.091 80.209 141.061 80.2391C141.09 80.2692 141.114 80.3023 141.144 80.3324Z" fill="url(#paint35_linear_43_204)"/>
<path d="M256 217.275L337.075 136.199H292.53L266.568 162.162C260.731 167.998 251.267 167.998 245.43 162.162L219.468 136.199H174.923L256 217.275Z" fill="url(#paint36_linear_43_204)"/>
<path d="M245.96 207.236L256 217.275L358.827 114.447H314.282L266.569 162.161C260.902 167.828 251.827 167.975 245.96 162.64V207.236Z" fill="url(#paint37_linear_43_204)"/>
<path d="M256 228.39C276.79 228.39 293.645 211.535 293.645 190.745C293.645 169.954 276.79 153.1 256 153.1C235.209 153.1 218.354 169.954 218.354 190.745C218.354 211.535 235.209 228.39 256 228.39Z" fill="url(#paint38_linear_43_204)"/>
<path d="M255.999 212.327C267.919 212.327 277.582 202.664 277.582 190.744C277.582 178.825 267.919 169.162 255.999 169.162C244.08 169.162 234.417 178.825 234.417 190.744C234.417 202.664 244.08 212.327 255.999 212.327Z" fill="url(#paint39_linear_43_204)"/>
<path d="M366.935 37.4794H145.064C138.689 37.4794 133.521 32.3112 133.521 25.9363V11.5431C133.521 5.16819 138.689 0 145.064 0H366.936C373.31 0 378.478 5.16819 378.478 11.5431V25.9373C378.478 32.3122 373.31 37.4794 366.935 37.4794Z" fill="url(#paint40_linear_43_204)"/>
</g>
<defs>
<linearGradient id="paint0_linear_43_204" x1="73.0062" y1="364.862" x2="106.136" y2="410.54" gradientUnits="userSpaceOnUse">
<stop stop-color="#FEF0AE"/>
<stop offset="1" stop-color="#FBC56D"/>
</linearGradient>
<linearGradient id="paint1_linear_43_204" x1="69.9894" y1="394.157" x2="122.193" y2="418.251" gradientUnits="userSpaceOnUse">
<stop stop-color="#DC8758" stop-opacity="0"/>
<stop offset="0.996" stop-color="#DC8758" stop-opacity="0.996"/>
<stop offset="1" stop-color="#DC8758"/>
</linearGradient>
<linearGradient id="paint2_linear_43_204" x1="39.0243" y1="325.925" x2="93.7381" y2="366.584" gradientUnits="userSpaceOnUse">
<stop stop-color="#FEF0AE"/>
<stop offset="1" stop-color="#FBC56D"/>
</linearGradient>
<linearGradient id="paint3_linear_43_204" x1="61.9619" y1="371.404" x2="103.457" y2="370.735" gradientUnits="userSpaceOnUse">
<stop stop-color="#DC8758" stop-opacity="0"/>
<stop offset="0.996" stop-color="#DC8758" stop-opacity="0.996"/>
<stop offset="1" stop-color="#DC8758"/>
</linearGradient>
<linearGradient id="paint4_linear_43_204" x1="148.944" y1="232.395" x2="136.395" y2="290.12" gradientUnits="userSpaceOnUse">
<stop stop-color="#FEF0AE"/>
<stop offset="1" stop-color="#FBC56D"/>
</linearGradient>
<linearGradient id="paint5_linear_43_204" x1="94.7187" y1="238.209" x2="126.844" y2="271.003" gradientUnits="userSpaceOnUse">
<stop stop-color="#DC8758" stop-opacity="0"/>
<stop offset="0.996" stop-color="#DC8758" stop-opacity="0.996"/>
<stop offset="1" stop-color="#DC8758"/>
</linearGradient>
<linearGradient id="paint6_linear_43_204" x1="75.4224" y1="246.261" x2="103.03" y2="332.599" gradientUnits="userSpaceOnUse">
<stop stop-color="#FEF0AE"/>
<stop offset="1" stop-color="#FBC56D"/>
</linearGradient>
<linearGradient id="paint7_linear_43_204" x1="80.9852" y1="293.274" x2="116.457" y2="324.061" gradientUnits="userSpaceOnUse">
<stop stop-color="#DC8758" stop-opacity="0"/>
<stop offset="0.996" stop-color="#DC8758" stop-opacity="0.996"/>
<stop offset="1" stop-color="#DC8758"/>
</linearGradient>
<linearGradient id="paint8_linear_43_204" x1="438.992" y1="364.862" x2="405.863" y2="410.54" gradientUnits="userSpaceOnUse">
<stop stop-color="#FEF0AE"/>
<stop offset="1" stop-color="#FBC56D"/>
</linearGradient>
<linearGradient id="paint9_linear_43_204" x1="442.01" y1="394.157" x2="389.806" y2="418.251" gradientUnits="userSpaceOnUse">
<stop stop-color="#DC8758" stop-opacity="0"/>
<stop offset="0.996" stop-color="#DC8758" stop-opacity="0.996"/>
<stop offset="1" stop-color="#DC8758"/>
</linearGradient>
<linearGradient id="paint10_linear_43_204" x1="472.975" y1="325.925" x2="418.261" y2="366.584" gradientUnits="userSpaceOnUse">
<stop stop-color="#FEF0AE"/>
<stop offset="1" stop-color="#FBC56D"/>
</linearGradient>
<linearGradient id="paint11_linear_43_204" x1="450.037" y1="371.404" x2="408.542" y2="370.735" gradientUnits="userSpaceOnUse">
<stop stop-color="#DC8758" stop-opacity="0"/>
<stop offset="0.996" stop-color="#DC8758" stop-opacity="0.996"/>
<stop offset="1" stop-color="#DC8758"/>
</linearGradient>
<linearGradient id="paint12_linear_43_204" x1="363.054" y1="232.395" x2="375.604" y2="290.12" gradientUnits="userSpaceOnUse">
<stop stop-color="#FEF0AE"/>
<stop offset="1" stop-color="#FBC56D"/>
</linearGradient>
<linearGradient id="paint13_linear_43_204" x1="417.28" y1="238.209" x2="385.155" y2="271.003" gradientUnits="userSpaceOnUse">
<stop stop-color="#DC8758" stop-opacity="0"/>
<stop offset="0.996" stop-color="#DC8758" stop-opacity="0.996"/>
<stop offset="1" stop-color="#DC8758"/>
</linearGradient>
<linearGradient id="paint14_linear_43_204" x1="436.577" y1="246.261" x2="408.969" y2="332.599" gradientUnits="userSpaceOnUse">
<stop stop-color="#FEF0AE"/>
<stop offset="1" stop-color="#FBC56D"/>
</linearGradient>
<linearGradient id="paint15_linear_43_204" x1="431.014" y1="293.274" x2="395.542" y2="324.061" gradientUnits="userSpaceOnUse">
<stop stop-color="#DC8758" stop-opacity="0"/>
<stop offset="0.996" stop-color="#DC8758" stop-opacity="0.996"/>
<stop offset="1" stop-color="#DC8758"/>
</linearGradient>
<linearGradient id="paint16_linear_43_204" x1="157.569" y1="253.92" x2="325.943" y2="422.294" gradientUnits="userSpaceOnUse">
<stop stop-color="#FEF0AE"/>
<stop offset="1" stop-color="#FBC56D"/>
</linearGradient>
<linearGradient id="paint17_linear_43_204" x1="338.649" y1="434.999" x2="170.939" y2="267.289" gradientUnits="userSpaceOnUse">
<stop stop-color="#FEF0AE"/>
<stop offset="1" stop-color="#FBC56D"/>
</linearGradient>
<linearGradient id="paint18_linear_43_204" x1="176.58" y1="272.931" x2="307.308" y2="403.659" gradientUnits="userSpaceOnUse">
<stop stop-color="#FEF0AE"/>
<stop offset="1" stop-color="#FBC56D"/>
</linearGradient>
<linearGradient id="paint19_linear_43_204" x1="256" y1="399.062" x2="256" y2="503.851" gradientUnits="userSpaceOnUse">
<stop stop-color="#DC8758" stop-opacity="0"/>
<stop offset="0.996" stop-color="#DC8758" stop-opacity="0.996"/>
<stop offset="1" stop-color="#DC8758"/>
</linearGradient>
<linearGradient id="paint20_linear_43_204" x1="351.616" y1="435.32" x2="219.767" y2="352.328" gradientUnits="userSpaceOnUse">
<stop stop-color="#DC8758" stop-opacity="0"/>
<stop offset="0.996" stop-color="#DC8758" stop-opacity="0.996"/>
<stop offset="1" stop-color="#DC8758"/>
</linearGradient>
<linearGradient id="paint21_linear_43_204" x1="222.744" y1="322.004" x2="282.714" y2="381.973" gradientUnits="userSpaceOnUse">
<stop stop-color="#FBC56D"/>
<stop offset="1" stop-color="#C5715A"/>
</linearGradient>
<linearGradient id="paint22_linear_43_204" x1="291.933" y1="338.355" x2="209.046" y2="372.621" gradientUnits="userSpaceOnUse">
<stop stop-color="#8C3D27" stop-opacity="0"/>
<stop offset="1" stop-color="#8C3D27"/>
</linearGradient>
<linearGradient id="paint23_linear_43_204" x1="270.291" y1="367.771" x2="224.912" y2="348.322" gradientUnits="userSpaceOnUse">
<stop stop-color="#8C3D27" stop-opacity="0"/>
<stop offset="1" stop-color="#8C3D27"/>
</linearGradient>
<linearGradient id="paint24_linear_43_204" x1="241.708" y1="367.771" x2="287.087" y2="348.322" gradientUnits="userSpaceOnUse">
<stop stop-color="#8C3D27" stop-opacity="0"/>
<stop offset="1" stop-color="#8C3D27"/>
</linearGradient>
<linearGradient id="paint25_linear_43_204" x1="242.716" y1="370.047" x2="271.888" y2="323.163" gradientUnits="userSpaceOnUse">
<stop stop-color="#8C3D27" stop-opacity="0"/>
<stop offset="1" stop-color="#8C3D27"/>
</linearGradient>
<linearGradient id="paint26_linear_43_204" x1="267.046" y1="364.126" x2="264.615" y2="318.284" gradientUnits="userSpaceOnUse">
<stop stop-color="#8C3D27" stop-opacity="0"/>
<stop offset="1" stop-color="#8C3D27"/>
</linearGradient>
<linearGradient id="paint27_linear_43_204" x1="334.671" y1="284.905" x2="273.097" y2="177.151" gradientUnits="userSpaceOnUse">
<stop stop-color="#DC8758" stop-opacity="0"/>
<stop offset="0.996" stop-color="#DC8758" stop-opacity="0.996"/>
<stop offset="1" stop-color="#DC8758"/>
</linearGradient>
<linearGradient id="paint28_linear_43_204" x1="263.139" y1="56.8979" x2="302.794" y2="120.145" gradientUnits="userSpaceOnUse">
<stop stop-color="#F9F5F3"/>
<stop offset="1" stop-color="#D8E8F0"/>
</linearGradient>
<linearGradient id="paint29_linear_43_204" x1="223.586" y1="-20.7012" x2="346.734" y2="120.516" gradientUnits="userSpaceOnUse">
<stop stop-color="#FD4755"/>
<stop offset="1" stop-color="#A72B2B"/>
</linearGradient>
<linearGradient id="paint30_linear_43_204" x1="256" y1="66.7604" x2="256" y2="33.5969" gradientUnits="userSpaceOnUse">
<stop stop-color="#A72B2B" stop-opacity="0"/>
<stop offset="1" stop-color="#42210B"/>
</linearGradient>
<linearGradient id="paint31_linear_43_204" x1="197.426" y1="2.11219" x2="320.573" y2="143.33" gradientUnits="userSpaceOnUse">
<stop stop-color="#FD4755"/>
<stop offset="1" stop-color="#A72B2B"/>
</linearGradient>
<linearGradient id="paint32_linear_43_204" x1="294.144" y1="107.425" x2="311.28" y2="124.562" gradientUnits="userSpaceOnUse">
<stop stop-color="#A72B2B" stop-opacity="0"/>
<stop offset="1" stop-color="#42210B"/>
</linearGradient>
<linearGradient id="paint33_linear_43_204" x1="217.856" y1="107.425" x2="200.719" y2="124.562" gradientUnits="userSpaceOnUse">
<stop stop-color="#A72B2B" stop-opacity="0"/>
<stop offset="1" stop-color="#42210B"/>
</linearGradient>
<linearGradient id="paint34_linear_43_204" x1="343.025" y1="178.308" x2="137.161" y2="-27.556" gradientUnits="userSpaceOnUse">
<stop stop-color="#FEF0AE"/>
<stop offset="1" stop-color="#FBC56D"/>
</linearGradient>
<linearGradient id="paint35_linear_43_204" x1="256" y1="81.9869" x2="256" y2="222.575" gradientUnits="userSpaceOnUse">
<stop stop-color="#FEF0AE"/>
<stop offset="1" stop-color="#FBC56D"/>
</linearGradient>
<linearGradient id="paint36_linear_43_204" x1="256" y1="163.639" x2="256" y2="209.864" gradientUnits="userSpaceOnUse">
<stop stop-color="#DC8758" stop-opacity="0"/>
<stop offset="0.996" stop-color="#DC8758" stop-opacity="0.996"/>
<stop offset="1" stop-color="#DC8758"/>
</linearGradient>
<linearGradient id="paint37_linear_43_204" x1="303.452" y1="137.466" x2="275.342" y2="166.078" gradientUnits="userSpaceOnUse">
<stop stop-color="#DC8758" stop-opacity="0"/>
<stop offset="0.996" stop-color="#DC8758" stop-opacity="0.996"/>
<stop offset="1" stop-color="#DC8758"/>
</linearGradient>
<linearGradient id="paint38_linear_43_204" x1="234.415" y1="169.16" x2="287.653" y2="222.398" gradientUnits="userSpaceOnUse">
<stop stop-color="#FBC56D"/>
<stop offset="1" stop-color="#C5715A"/>
</linearGradient>
<linearGradient id="paint39_linear_43_204" x1="277.082" y1="211.827" x2="227.21" y2="161.955" gradientUnits="userSpaceOnUse">
<stop stop-color="#FBC56D"/>
<stop offset="1" stop-color="#C5715A"/>
</linearGradient>
<linearGradient id="paint40_linear_43_204" x1="255.999" y1="11.3774" x2="255.999" y2="32.2972" gradientUnits="userSpaceOnUse">
<stop stop-color="#FEF0AE"/>
<stop offset="1" stop-color="#FBC56D"/>
</linearGradient>
<clipPath id="clip0_43_204">
<rect width="512" height="512" fill="white"/>
</clipPath>
</defs>
</svg>
