<svg width="512" height="512" viewBox="0 0 512 512" fill="none" xmlns="http://www.w3.org/2000/svg">
<path d="M202.667 373.334C199.838 373.334 197.125 374.458 195.124 376.458C193.124 378.459 192 381.172 192 384.001C192 386.83 193.124 389.543 195.124 391.543C197.125 393.544 199.838 394.667 202.667 394.667H309.333C312.162 394.667 314.875 393.544 316.876 391.543C318.876 389.543 320 386.83 320 384.001C320 381.172 318.876 378.459 316.876 376.458C314.875 374.458 312.162 373.334 309.333 373.334H202.667Z" fill="#FCCB32"/>
<path fill-rule="evenodd" clip-rule="evenodd" d="M302.272 54.9334C289.094 44.5273 272.792 38.8672 256 38.8672C239.209 38.8672 222.907 44.5273 209.728 54.9334L71.0617 164.416C62.2101 171.405 55.0569 180.309 50.1391 190.459C45.2213 200.609 42.6667 211.74 42.667 223.019V394.667C42.667 414.47 50.5336 433.461 64.5364 447.464C78.5391 461.467 97.5308 469.333 117.334 469.333H394.667C414.47 469.333 433.462 461.467 447.464 447.464C461.467 433.461 469.334 414.47 469.334 394.667V223.019C469.334 211.74 466.779 200.609 461.862 190.459C456.944 180.309 449.791 171.405 440.939 164.416L302.272 54.9334ZM222.955 71.6801C232.367 64.2502 244.009 60.209 256 60.209C267.992 60.209 279.633 64.2502 289.046 71.6801L427.712 181.163C434.036 186.154 439.146 192.513 442.66 199.763C446.173 207.012 447.999 214.963 448 223.019V394.667C448 408.812 442.381 422.377 432.379 432.379C422.377 442.381 408.812 448 394.667 448H117.334C103.189 448 89.6232 442.381 79.6213 432.379C69.6194 422.377 64.0003 408.812 64.0003 394.667V223.019C63.9987 214.965 65.8213 207.015 69.3314 199.765C72.8414 192.516 77.9477 186.156 84.267 181.163L222.955 71.6801Z" fill="#FCCB32"/>
</svg>
