<svg width="221" height="59" viewBox="0 0 221 59" fill="none" xmlns="http://www.w3.org/2000/svg">
<path d="M74.9707 29.2896V19.4689H81.2554V29.1213C81.2554 34.0128 83.5392 36.4774 87.4183 36.4774C91.2932 36.4774 93.5812 34.0969 93.5812 29.3316C93.5812 29.3316 93.5812 21.7274 93.5812 18.0515C93.5812 13.3241 99.8658 12.2432 99.8658 12.2432V29.0751C99.8658 38.0883 95.0086 42.5128 87.3385 42.5128C79.6685 42.5128 74.9707 38.0883 74.9707 29.2896Z" fill="#FCCB32"/>
<path d="M105.752 18.0977C105.752 18.0977 111.953 18.0977 111.953 22.3204C111.953 23.7756 111.814 22.5264 111.814 22.5264C113.325 20.3562 115.366 18.8253 118.628 18.8253C123.728 18.8253 128.586 22.9933 128.586 30.6059V30.69C128.586 38.3027 123.812 42.4665 118.628 42.4665C115.324 42.4665 113.283 40.8935 111.814 39.0639V48.8426H105.613L105.752 18.0977ZM122.385 30.69V30.6059C122.385 26.8206 119.937 24.3139 117.041 24.3139C114.144 24.3139 111.734 26.8206 111.734 30.6059V30.69C111.734 34.4753 114.14 36.982 117.041 36.982C119.937 36.982 122.385 34.5174 122.385 30.69Z" fill="#FCCB32"/>
<path d="M132.092 30.7741V30.69C132.092 24.1835 136.865 18.8252 143.557 18.8252C147.68 18.8252 150.207 20.272 152.289 22.6525L148.494 26.9047C147.067 25.3737 145.761 24.3938 143.515 24.3938C140.413 24.3938 138.209 27.1991 138.209 30.6016V30.6858C138.209 34.2145 140.371 36.9777 143.759 36.9777C145.841 36.9777 147.268 36.044 148.78 34.5552L152.411 38.3825C150.291 40.8051 147.839 42.5505 143.473 42.5505C136.907 42.5547 132.092 37.2385 132.092 30.7741Z" fill="white"/>
<path d="M155.391 30.7741V30.69C155.391 24.1414 160.449 18.8252 167.263 18.8252C173.997 18.8252 179.056 24.011 179.056 30.6058V30.69C179.056 37.2385 173.997 42.5547 167.183 42.5547C160.449 42.5547 155.391 37.3647 155.391 30.7741ZM172.935 30.7741V30.69C172.935 27.3295 170.609 24.398 167.183 24.398C163.632 24.398 161.512 27.2033 161.512 30.6058V30.69C161.512 34.0505 163.837 36.982 167.263 36.982C170.815 36.982 172.935 34.1766 172.935 30.7741Z" fill="white"/>
<path d="M183.539 19.2546H189.74V23.8474C191.003 20.7435 193.006 18.6616 196.717 18.8298V25.5929H196.39C192.267 25.5929 189.74 28.1458 189.74 33.6303V42.0504H183.539V19.2546Z" fill="white"/>
<path d="M199.535 30.7741V30.69C199.535 24.1835 203.981 18.8252 210.35 18.8252C217.654 18.8252 221 24.7344 221 31.1989C221 31.7078 220.958 32.263 220.921 32.898H205.702C206.315 35.8337 208.272 37.3647 211.047 37.3647C213.129 37.3647 214.598 36.6833 216.353 35.0262L219.905 38.3026C217.822 40.9817 214.926 42.5547 210.967 42.5547C204.392 42.5547 199.535 37.7474 199.535 30.7741ZM214.959 28.8604C214.594 25.971 212.961 24.011 210.35 24.011C207.738 24.011 206.105 25.9247 205.614 28.8604H214.959Z" fill="white"/>
<path d="M66.1167 29.2855L64.5256 30.8753C61.0286 34.3746 55.3106 34.3746 51.8136 30.8753L25.2266 4.2269L26.8177 2.63708C30.3273 -0.879028 36.0201 -0.879028 39.5297 2.63708L66.1167 29.2855Z" fill="#FCCB32"/>
<path d="M0 29.4955L1.59111 27.9057C5.08818 24.4064 10.8061 24.4064 14.3032 27.9057L29.7356 43.3749L28.1445 44.9647C24.6349 48.4809 18.9421 48.4809 15.4325 44.9647L0 29.4955Z" fill="#FAFAFA"/>
<path d="M0.0078125 29.5002L1.59892 31.09C5.09599 34.5893 10.8139 34.5893 14.311 31.09L29.7392 15.6292L28.1481 14.0394C24.6385 10.5233 18.9458 10.5233 15.4361 14.0394L0.0078125 29.5002Z" fill="white"/>
<path d="M66.3305 29.5004L64.7394 27.9106C61.2424 24.4113 55.5245 24.4113 52.0274 27.9106L25.2305 54.7693L26.8216 56.3591C30.3312 59.8752 36.024 59.8752 39.5336 56.3591L66.3305 29.5004Z" fill="#FADB5C"/>
</svg>
