<svg width="512" height="512" viewBox="0 0 512 512" fill="none" xmlns="http://www.w3.org/2000/svg">
<g clip-path="url(#clip0_43_300)">
<path d="M256 0C114.833 0 0 114.844 0 256C0 397.156 114.833 512 256 512C397.167 512 512 397.156 512 256C512 114.844 397.167 0 256 0ZM256 490.667C126.604 490.667 21.333 385.396 21.333 256C21.333 126.604 126.604 21.333 256 21.333C385.396 21.333 490.667 126.604 490.667 256C490.667 385.396 385.396 490.667 256 490.667Z" fill="white"/>
<path d="M357.771 247.03L208.438 151.03C205.167 148.895 200.938 148.78 197.563 150.634C195.879 151.55 194.473 152.904 193.494 154.552C192.515 156.2 191.999 158.082 192 159.999V351.999C192 355.905 194.125 359.489 197.563 361.364C199.129 362.217 200.884 362.665 202.667 362.666C204.667 362.666 206.688 362.103 208.438 360.968L357.771 264.968C360.813 263.01 362.667 259.624 362.667 255.999C362.667 252.374 360.813 248.989 357.771 247.03ZM213.333 332.457V179.541L332.271 255.999L213.333 332.457Z" fill="#FCCB32"/>
</g>
<defs>
<clipPath id="clip0_43_300">
<rect width="512" height="512" fill="white"/>
</clipPath>
</defs>
</svg>
