<svg width="512" height="512" viewBox="0 0 512 512" fill="none" xmlns="http://www.w3.org/2000/svg">
<g clip-path="url(#clip0_44_316)">
<path d="M256 512C397.159 512 512 397.159 512 256C512 114.841 397.159 0 256 0C114.841 0 0 114.841 0 256C0 397.159 114.841 512 256 512ZM123.948 446.639C123.364 441.545 123.072 436.423 123.071 431.296C123.071 358 182.7 298.368 256 298.368C329.3 298.368 388.929 358 388.929 431.3C388.928 436.427 388.635 441.549 388.052 446.643C349.282 473.571 303.206 488.003 256.002 488.003C208.798 488.003 162.722 473.571 123.952 446.643L123.948 446.639ZM184.573 201.278C184.572 187.151 188.76 173.341 196.608 161.594C204.456 149.847 215.611 140.691 228.663 135.284C241.714 129.878 256.076 128.462 269.932 131.218C283.787 133.973 296.515 140.776 306.505 150.765C316.495 160.754 323.298 173.481 326.054 187.336C328.811 201.192 327.396 215.554 321.99 228.606C316.584 241.658 307.429 252.813 295.683 260.662C283.937 268.511 270.127 272.7 256 272.7C237.064 272.679 218.909 265.147 205.519 251.758C192.129 238.368 184.596 220.214 184.573 201.278ZM256 24C383.925 24 488 128.075 488 256C488.013 288.122 481.338 319.894 468.402 349.295C455.465 378.697 436.55 405.083 412.859 426.775C410.951 359.675 366.724 302.994 305.985 282.532C323.687 271.647 337.351 255.282 344.903 235.922C352.455 216.562 353.48 195.266 347.824 175.27C342.168 155.275 330.14 137.671 313.566 125.136C296.993 112.6 276.78 105.817 256 105.817C235.22 105.817 215.007 112.6 198.434 125.136C181.86 137.671 169.832 155.275 164.176 175.27C158.52 195.266 159.545 216.562 167.097 235.922C174.649 255.282 188.313 271.647 206.015 282.532C145.276 302.994 101.049 359.679 99.141 426.775C75.4503 405.083 56.5347 378.697 43.5981 349.295C30.6615 319.894 23.9872 288.122 24 256C24 128.075 128.075 24 256 24Z" fill="black"/>
<circle cx="256" cy="201" r="83.5" stroke="#FCCB32" stroke-width="25"/>
</g>
<defs>
<clipPath id="clip0_44_316">
<rect width="512" height="512" fill="white"/>
</clipPath>
</defs>
</svg>
