<svg width="512" height="512" viewBox="0 0 512 512" fill="none" xmlns="http://www.w3.org/2000/svg">
<g clip-path="url(#clip0_44_308)">
<path d="M255.667 512C214.493 512 181 478.507 181 437.333C181 434.504 182.124 431.791 184.124 429.791C186.125 427.79 188.838 426.667 191.667 426.667C194.496 426.667 197.209 427.79 199.209 429.791C201.21 431.791 202.333 434.504 202.333 437.333C202.333 466.731 226.269 490.667 255.667 490.667C285.064 490.667 309 466.731 309 437.333C309 434.504 310.124 431.791 312.124 429.791C314.125 427.79 316.838 426.667 319.667 426.667C322.496 426.667 325.209 427.79 327.209 429.791C329.21 431.791 330.333 434.504 330.333 437.333C330.333 478.507 296.84 512 255.667 512Z" fill="#FCCB32"/>
<path d="M479.667 224C476.838 224 474.125 222.876 472.124 220.876C470.124 218.875 469 216.162 469 213.333C469 150.656 444.595 91.712 400.264 47.4027C398.321 45.3909 397.246 42.6965 397.27 39.8997C397.294 37.103 398.416 34.4276 400.394 32.4499C402.372 30.4722 405.047 29.3504 407.844 29.3261C410.64 29.3018 413.335 30.377 415.347 32.32C439.198 56.0321 458.107 84.241 470.978 115.313C483.85 146.384 490.429 179.701 490.333 213.333C490.333 216.162 489.21 218.875 487.209 220.876C485.209 222.876 482.496 224 479.667 224ZM31.6667 224C28.8377 224 26.1246 222.876 24.1242 220.876C22.1238 218.875 21 216.162 21 213.333C21 144.939 47.624 80.6613 95.9867 32.32C97.9984 30.377 100.693 29.3018 103.49 29.3261C106.286 29.3504 108.962 30.4722 110.939 32.4499C112.917 34.4276 114.039 37.103 114.063 39.8997C114.087 42.6965 113.012 45.3909 111.069 47.4027C89.2071 69.1399 71.8747 94.9985 60.076 123.481C48.2772 151.964 42.2466 182.504 42.3333 213.333C42.3333 216.162 41.2095 218.875 39.2091 220.876C37.2088 222.876 34.4956 224 31.6667 224ZM287.667 89.1733C284.838 89.1733 282.125 88.0495 280.124 86.0491C278.124 84.0488 277 81.3356 277 78.5067V42.6667C277 30.912 267.421 21.3333 255.667 21.3333C243.912 21.3333 234.333 30.912 234.333 42.6667V78.5067C234.333 81.3356 233.21 84.0488 231.209 86.0491C229.209 88.0495 226.496 89.1733 223.667 89.1733C220.838 89.1733 218.125 88.0495 216.124 86.0491C214.124 84.0488 213 81.3356 213 78.5067V42.6667C213 19.136 232.136 0 255.667 0C279.197 0 298.333 19.136 298.333 42.6667V78.5067C298.333 81.3356 297.21 84.0488 295.209 86.0491C293.209 88.0495 290.496 89.1733 287.667 89.1733Z" fill="black"/>
<path d="M437.333 448H74.6665C68.1357 447.977 61.7678 445.959 56.4159 442.216C51.0639 438.474 46.9833 433.185 44.7207 427.059C42.4582 420.932 42.1216 414.261 43.7562 407.938C45.3907 401.615 48.9183 395.942 53.8665 391.68C70.4142 377.751 83.7148 360.37 92.8357 340.757C101.957 321.145 106.677 299.774 106.666 278.144V213.333C106.666 130.987 173.653 64 256 64C338.346 64 405.333 130.987 405.333 213.333V278.144C405.333 321.941 424.512 363.264 457.962 391.531C462.968 395.765 466.553 401.433 468.234 407.771C469.915 414.108 469.609 420.808 467.36 426.966C465.11 433.125 461.024 438.444 455.654 442.206C450.285 445.967 443.889 447.99 437.333 448ZM256 85.3333C185.408 85.3333 128 142.741 128 213.333V278.144C128.023 302.84 122.649 327.242 112.254 349.643C101.859 372.045 86.6928 391.903 67.8185 407.829C66.1423 409.236 64.9393 411.124 64.3727 413.238C63.806 415.351 63.903 417.588 64.6506 419.644C65.3982 421.701 66.7602 423.478 68.5519 424.734C70.3436 425.99 72.4783 426.665 74.6665 426.667H437.333C439.514 426.667 441.642 425.999 443.431 424.752C445.22 423.506 446.585 421.741 447.34 419.695C448.096 417.65 448.206 415.422 447.656 413.312C447.107 411.202 445.924 409.311 444.266 407.893C425.375 391.963 410.193 372.096 399.783 349.684C389.373 327.272 383.986 302.856 384 278.144V213.333C384 142.741 326.592 85.3333 256 85.3333Z" fill="black"/>
</g>
<defs>
<clipPath id="clip0_44_308">
<rect width="512" height="512" fill="white"/>
</clipPath>
</defs>
</svg>
