<svg width="512" height="512" viewBox="0 0 512 512" fill="none" xmlns="http://www.w3.org/2000/svg">
<g clip-path="url(#clip0_43_247)">
<path d="M121.801 378.108C147.158 388.517 167.221 405.305 179.517 424.333C182.092 428.318 178.209 437.777 173.577 438.804C151.458 443.704 125.386 441.555 100.029 431.145C74.6718 420.735 54.6084 403.948 42.3124 384.92C39.7373 380.935 43.6205 371.475 48.2526 370.449C70.371 365.549 96.4438 367.699 121.801 378.108Z" fill="url(#paint0_linear_43_247)"/>
<path d="M121.801 378.108C147.158 388.517 167.221 405.305 179.517 424.333C182.092 428.318 178.209 437.777 173.577 438.804C151.458 443.704 125.386 441.555 100.029 431.145C74.6718 420.735 54.6084 403.948 42.3124 384.92C39.7373 380.935 43.6205 371.475 48.2526 370.449C70.371 365.549 96.4438 367.699 121.801 378.108Z" fill="url(#paint1_linear_43_247)"/>
<path d="M134.697 342.151C159.53 361.833 176.441 386.906 184.007 411.98C185.591 417.232 178.25 426.495 172.775 426.152C146.636 424.512 118.364 413.775 93.5307 394.093C68.6977 374.412 51.7876 349.339 44.2211 324.265C42.6369 319.013 49.9785 309.75 55.4529 310.093C81.592 311.734 109.864 322.47 134.697 342.151Z" fill="url(#paint2_linear_43_247)"/>
<path d="M134.697 342.151C159.53 361.833 176.441 386.906 184.007 411.98C185.591 417.232 178.25 426.495 172.775 426.152C146.636 424.512 118.364 413.775 93.5307 394.093C68.6977 374.412 51.7876 349.339 44.2211 324.265C42.6369 319.013 49.9785 309.75 55.4529 310.093C81.592 311.734 109.864 322.47 134.697 342.151Z" fill="url(#paint3_linear_43_247)"/>
<path d="M159.765 286.741C181.524 320.141 191.678 356.806 190.686 389.739C190.478 396.636 178.019 404.752 171.627 402.156C141.101 389.757 111.665 365.654 89.9064 332.254C68.1474 298.855 57.9937 262.189 58.9856 229.257C59.1934 222.36 71.6531 214.243 78.045 216.839C108.57 229.239 138.006 253.342 159.765 286.741Z" fill="url(#paint4_linear_43_247)"/>
<path d="M62.6968 267.97C67.371 289.541 76.4003 311.526 89.9051 332.255C111.664 365.654 141.099 389.757 171.625 402.157C178.018 404.754 190.477 396.636 190.685 389.739C191.678 356.807 181.524 320.141 159.764 286.742C146.951 267.075 131.475 250.635 114.684 237.906L62.6968 267.97Z" fill="url(#paint5_linear_43_247)"/>
<path d="M390.199 378.108C364.842 388.517 344.779 405.305 332.483 424.333C329.908 428.318 333.791 437.777 338.423 438.804C360.542 443.704 386.614 441.555 411.971 431.145C437.328 420.735 457.392 403.948 469.688 384.92C472.263 380.935 468.38 371.475 463.748 370.449C441.629 365.549 415.556 367.699 390.199 378.108Z" fill="url(#paint6_linear_43_247)"/>
<path d="M390.199 378.108C364.842 388.517 344.779 405.305 332.483 424.333C329.908 428.318 333.791 437.777 338.423 438.804C360.542 443.704 386.614 441.555 411.971 431.145C437.328 420.735 457.392 403.948 469.688 384.92C472.263 380.935 468.38 371.475 463.748 370.449C441.629 365.549 415.556 367.699 390.199 378.108Z" fill="url(#paint7_linear_43_247)"/>
<path d="M377.303 342.151C352.47 361.833 335.56 386.906 327.994 411.98C326.409 417.232 333.751 426.495 339.225 426.152C365.364 424.512 393.637 413.775 418.47 394.093C443.303 374.412 460.213 349.339 467.78 324.265C469.364 319.013 462.022 309.75 456.548 310.093C430.409 311.734 402.136 322.47 377.303 342.151Z" fill="url(#paint8_linear_43_247)"/>
<path d="M377.303 342.151C352.47 361.833 335.56 386.906 327.994 411.98C326.409 417.232 333.751 426.495 339.225 426.152C365.364 424.512 393.637 413.775 418.47 394.093C443.303 374.412 460.213 349.339 467.78 324.265C469.364 319.013 462.022 309.75 456.548 310.093C430.409 311.734 402.136 322.47 377.303 342.151Z" fill="url(#paint9_linear_43_247)"/>
<path d="M352.235 286.741C330.476 320.141 320.322 356.806 321.314 389.739C321.522 396.636 333.982 404.752 340.374 402.156C370.899 389.757 400.335 365.654 422.094 332.254C443.853 298.855 454.007 262.189 453.015 229.257C452.807 222.36 440.347 214.243 433.955 216.839C403.43 229.239 373.994 253.342 352.235 286.741Z" fill="url(#paint10_linear_43_247)"/>
<path d="M449.303 267.97C444.629 289.541 435.6 311.526 422.095 332.255C400.336 365.654 370.901 389.757 340.375 402.157C333.982 404.754 321.523 396.636 321.315 389.739C320.322 356.807 330.476 320.141 352.236 286.742C365.049 267.075 380.525 250.635 397.316 237.906L449.303 267.97Z" fill="url(#paint11_linear_43_247)"/>
<path d="M256 512C344.172 512 415.65 440.523 415.65 352.351C415.65 264.179 344.172 192.701 256 192.701C167.828 192.701 96.3506 264.179 96.3506 352.351C96.3506 440.523 167.828 512 256 512Z" fill="url(#paint12_linear_43_247)"/>
<path d="M256 479.602C326.28 479.602 383.252 422.629 383.252 352.35C383.252 282.07 326.28 225.098 256 225.098C185.721 225.098 128.748 282.07 128.748 352.35C128.748 422.629 185.721 479.602 256 479.602Z" fill="url(#paint13_linear_43_247)"/>
<path d="M256 461.597C316.335 461.597 365.247 412.686 365.247 352.35C365.247 292.015 316.335 243.104 256 243.104C195.665 243.104 146.753 292.015 146.753 352.35C146.753 412.686 195.665 461.597 256 461.597Z" fill="url(#paint14_linear_43_247)"/>
<path d="M96.3506 352.351C96.3506 440.524 167.828 512.001 256 512.001C344.173 512.001 415.65 440.524 415.65 352.351C415.65 351.732 415.634 351.116 415.627 350.498H96.3737C96.3667 351.116 96.3506 351.732 96.3506 352.351Z" fill="url(#paint15_linear_43_247)"/>
<path d="M300.776 505.624C351.082 490.953 391.112 452.197 407.549 402.67L329.793 324.913L312.263 325.774L264.952 278.463L207.292 412.14L300.776 505.624Z" fill="url(#paint16_linear_43_247)"/>
<path d="M321.464 317.659L290.155 310.095C287.242 309.391 284.697 307.625 283.018 305.143L264.969 278.464C262.786 275.237 259.442 273.506 256 273.227C252.559 273.506 249.214 275.237 247.031 278.464L228.983 305.143C227.304 307.625 224.759 309.391 221.846 310.095L190.537 317.659C182.043 319.711 178.505 329.848 183.873 336.741L203.67 362.15C205.511 364.514 206.404 367.48 206.174 370.467L203.693 402.582C203.02 411.293 211.567 417.792 219.782 414.815L250.065 403.84C251.964 403.155 254.006 402.961 256 403.275C257.995 402.962 260.036 403.156 261.935 403.84L292.219 414.815C300.433 417.791 308.98 411.293 308.308 402.582L305.827 370.467C305.596 367.48 306.489 364.514 308.331 362.15L328.127 336.741C333.496 329.848 329.957 319.711 321.464 317.659Z" fill="url(#paint17_linear_43_247)"/>
<path d="M261.935 403.84L292.218 414.815C300.433 417.791 308.98 411.293 308.307 402.582L305.827 370.467C305.596 367.48 306.489 364.514 308.33 362.15L328.127 336.741C333.497 329.849 329.957 319.711 321.464 317.659L290.154 310.095C287.242 309.391 284.697 307.625 283.018 305.143L264.969 278.464C262.785 275.237 259.441 273.506 256 273.227V403.275C257.994 402.961 260.036 403.155 261.935 403.84Z" fill="url(#paint18_linear_43_247)"/>
<path d="M321.464 317.66L290.155 310.096C289.095 309.839 288.075 309.439 287.123 308.906L207.309 412.143C210.44 415.168 215.164 416.491 219.782 414.817L250.065 403.842C251.964 403.158 254.006 402.963 256 403.277C257.995 402.964 260.036 403.159 261.935 403.842L292.219 414.817C300.433 417.794 308.98 411.295 308.308 402.584L305.827 370.47C305.596 367.482 306.49 364.516 308.331 362.152L328.127 336.743C333.496 329.849 329.957 319.712 321.464 317.66Z" fill="url(#paint19_linear_43_247)"/>
<path d="M190.537 317.66L221.846 310.096C222.906 309.839 223.926 309.439 224.878 308.906L304.691 412.143C301.56 415.168 296.837 416.491 292.219 414.817L261.935 403.842C260.036 403.158 257.995 402.963 256 403.277C254.006 402.964 251.965 403.159 250.065 403.842L219.782 414.817C211.568 417.794 203.02 411.295 203.693 402.584L206.174 370.47C206.404 367.482 205.511 364.516 203.67 362.152L183.873 336.743C178.505 329.849 182.043 319.712 190.537 317.66Z" fill="url(#paint20_linear_43_247)"/>
<path d="M182.203 324.916C180.714 328.671 181.072 333.145 183.874 336.742L203.67 362.151C205.511 364.515 206.404 367.481 206.174 370.469L203.693 402.583C203.02 411.294 211.567 417.794 219.782 414.816L250.065 403.841C251.964 403.157 254.006 402.962 256 403.276C257.995 402.963 260.036 403.158 261.935 403.841L292.219 414.816C300.433 417.793 308.98 411.294 308.308 402.583L305.827 370.469C305.704 368.826 305.92 367.175 306.462 365.619L182.203 324.916Z" fill="url(#paint21_linear_43_247)"/>
<path d="M329.809 324.916C331.298 328.671 330.942 333.145 328.139 336.742L308.343 362.151C306.501 364.515 305.608 367.481 305.839 370.469L308.319 402.583C308.992 411.294 300.445 417.794 292.231 414.816L261.947 403.841C260.048 403.157 258.007 402.962 256.012 403.276C254.018 402.963 251.977 403.158 250.077 403.841L219.794 414.816C211.58 417.793 203.032 411.294 203.705 402.583L206.185 370.469C206.309 368.826 206.093 367.175 205.55 365.619L329.809 324.916Z" fill="url(#paint22_linear_43_247)"/>
<path d="M256 192.701C255.337 192.701 254.68 192.718 254.019 192.726L229.381 217.365L409.244 397.228C413.503 382.649 415.659 367.538 415.649 352.35C415.649 264.178 344.172 192.701 256 192.701Z" fill="url(#paint23_linear_43_247)"/>
<path d="M159.624 3.3457V87.6751L256 184.052L352.376 87.6751V3.3457H159.624Z" fill="url(#paint24_linear_43_247)"/>
<path d="M159.624 3.3457V29.5902L255.678 125.644C255.763 125.73 255.879 125.778 256 125.778C256.121 125.778 256.237 125.73 256.322 125.644L352.376 29.5902V3.3457H159.624Z" fill="url(#paint25_linear_43_247)"/>
<path d="M159.624 3.3457V29.5902L255.678 125.644C255.763 125.73 255.879 125.778 256 125.778C256.121 125.778 256.237 125.73 256.322 125.644L352.376 29.5902V3.3457H159.624Z" fill="url(#paint26_linear_43_247)"/>
<path d="M256 140.83C253.963 140.834 251.945 140.435 250.062 139.656C248.18 138.878 246.47 137.735 245.03 136.293L159.624 50.8867V87.6764L256 184.053L352.376 87.6764V50.8867L266.97 136.293C265.53 137.735 263.82 138.878 261.938 139.656C260.055 140.435 258.037 140.834 256 140.83Z" fill="url(#paint27_linear_43_247)"/>
<path d="M256 140.83C253.963 140.834 251.945 140.435 250.062 139.656C248.18 138.878 246.47 137.735 245.03 136.293L159.624 50.8867V87.6764L256 184.053L352.376 87.6764V50.8867L266.97 136.293C265.53 137.735 263.82 138.878 261.938 139.656C260.055 140.435 258.037 140.834 256 140.83Z" fill="url(#paint28_linear_43_247)"/>
<path d="M256 140.83C259.974 140.83 263.946 139.318 266.97 136.293L352.376 50.8867V87.6764L256 184.053L159.624 87.6764V50.8867L245.03 136.293C246.47 137.735 248.18 138.877 250.063 139.656C251.945 140.435 253.963 140.834 256 140.83Z" fill="url(#paint29_linear_43_247)"/>
<path d="M245.432 162.16L163.417 80.1457C157.267 73.9957 147.295 73.9957 141.145 80.1457C134.995 86.2957 134.995 96.2677 141.145 102.418L256 217.274L370.856 102.419C377.006 96.2687 377.006 86.2967 370.856 80.1467C364.706 73.9967 354.734 73.9967 348.584 80.1467L266.569 162.161C260.731 167.998 251.268 167.998 245.432 162.16Z" fill="url(#paint30_linear_43_247)"/>
<path d="M141.144 80.3324L243.907 183.095C250.586 189.774 261.415 189.774 268.094 183.095L370.856 80.3324C370.886 80.3023 370.91 80.2692 370.94 80.2391C370.911 80.209 370.886 80.1758 370.856 80.1457C364.706 73.9957 354.734 73.9957 348.584 80.1457L266.569 162.16C260.733 167.997 251.269 167.997 245.432 162.16L163.417 80.1457C157.267 73.9957 147.295 73.9957 141.145 80.1457C141.115 80.1758 141.091 80.209 141.061 80.2391C141.09 80.2692 141.114 80.3023 141.144 80.3324Z" fill="url(#paint31_linear_43_247)"/>
<path d="M256 217.275L337.076 136.199H292.531L266.568 162.162C260.732 167.998 251.268 167.998 245.431 162.162L219.468 136.199H174.923L256 217.275Z" fill="url(#paint32_linear_43_247)"/>
<path d="M245.961 207.236L256 217.275L358.828 114.447H314.283L266.569 162.161C260.902 167.828 251.828 167.975 245.961 162.64V207.236Z" fill="url(#paint33_linear_43_247)"/>
<path d="M256 228.39C276.791 228.39 293.645 211.535 293.645 190.745C293.645 169.954 276.791 153.1 256 153.1C235.209 153.1 218.355 169.954 218.355 190.745C218.355 211.535 235.209 228.39 256 228.39Z" fill="url(#paint34_linear_43_247)"/>
<path d="M256 212.327C267.92 212.327 277.583 202.664 277.583 190.744C277.583 178.825 267.92 169.162 256 169.162C244.081 169.162 234.418 178.825 234.418 190.744C234.418 202.664 244.081 212.327 256 212.327Z" fill="url(#paint35_linear_43_247)"/>
<path d="M366.935 37.4794H145.065C138.69 37.4794 133.521 32.3112 133.521 25.9363V11.5431C133.521 5.16819 138.69 0 145.065 0H366.936C373.31 0 378.478 5.16819 378.478 11.5431V25.9373C378.478 32.3122 373.31 37.4794 366.935 37.4794Z" fill="url(#paint36_linear_43_247)"/>
</g>
<defs>
<linearGradient id="paint0_linear_43_247" x1="92.6087" y1="356.792" x2="110.746" y2="404.108" gradientUnits="userSpaceOnUse">
<stop stop-color="#E6E6E6"/>
<stop offset="1" stop-color="#999999"/>
</linearGradient>
<linearGradient id="paint1_linear_43_247" x1="83.1912" y1="381.505" x2="122.886" y2="414.525" gradientUnits="userSpaceOnUse">
<stop stop-color="#766E6E" stop-opacity="0"/>
<stop offset="0.281" stop-color="#716B6B" stop-opacity="0.281"/>
<stop offset="0.571" stop-color="#656060" stop-opacity="0.571"/>
<stop offset="0.864" stop-color="#514F4F" stop-opacity="0.864"/>
<stop offset="1" stop-color="#444444"/>
</linearGradient>
<linearGradient id="paint2_linear_43_247" x1="72.1671" y1="315.126" x2="110.194" y2="363.098" gradientUnits="userSpaceOnUse">
<stop stop-color="#E6E6E6"/>
<stop offset="1" stop-color="#999999"/>
</linearGradient>
<linearGradient id="paint3_linear_43_247" x1="81.5087" y1="359.903" x2="117.662" y2="368.955" gradientUnits="userSpaceOnUse">
<stop stop-color="#766E6E" stop-opacity="0"/>
<stop offset="0.281" stop-color="#716B6B" stop-opacity="0.281"/>
<stop offset="0.571" stop-color="#656060" stop-opacity="0.571"/>
<stop offset="0.864" stop-color="#514F4F" stop-opacity="0.864"/>
<stop offset="1" stop-color="#444444"/>
</linearGradient>
<linearGradient id="paint4_linear_43_247" x1="122.235" y1="254.463" x2="126.144" y2="335.77" gradientUnits="userSpaceOnUse">
<stop stop-color="#E6E6E6"/>
<stop offset="1" stop-color="#999999"/>
</linearGradient>
<linearGradient id="paint5_linear_43_247" x1="116.148" y1="296.539" x2="139.774" y2="331.481" gradientUnits="userSpaceOnUse">
<stop stop-color="#766E6E" stop-opacity="0"/>
<stop offset="0.281" stop-color="#716B6B" stop-opacity="0.281"/>
<stop offset="0.571" stop-color="#656060" stop-opacity="0.571"/>
<stop offset="0.864" stop-color="#514F4F" stop-opacity="0.864"/>
<stop offset="1" stop-color="#444444"/>
</linearGradient>
<linearGradient id="paint6_linear_43_247" x1="419.422" y1="356.76" x2="401.266" y2="404.062" gradientUnits="userSpaceOnUse">
<stop stop-color="#E6E6E6"/>
<stop offset="1" stop-color="#999999"/>
</linearGradient>
<linearGradient id="paint7_linear_43_247" x1="428.828" y1="381.474" x2="389.123" y2="414.471" gradientUnits="userSpaceOnUse">
<stop stop-color="#766E6E" stop-opacity="0"/>
<stop offset="0.281" stop-color="#716B6B" stop-opacity="0.281"/>
<stop offset="0.571" stop-color="#656060" stop-opacity="0.571"/>
<stop offset="0.864" stop-color="#514F4F" stop-opacity="0.864"/>
<stop offset="1" stop-color="#444444"/>
</linearGradient>
<linearGradient id="paint8_linear_43_247" x1="439.881" y1="315.109" x2="401.837" y2="363.058" gradientUnits="userSpaceOnUse">
<stop stop-color="#E6E6E6"/>
<stop offset="1" stop-color="#999999"/>
</linearGradient>
<linearGradient id="paint9_linear_43_247" x1="430.519" y1="359.876" x2="394.367" y2="368.91" gradientUnits="userSpaceOnUse">
<stop stop-color="#766E6E" stop-opacity="0"/>
<stop offset="0.281" stop-color="#716B6B" stop-opacity="0.281"/>
<stop offset="0.571" stop-color="#656060" stop-opacity="0.571"/>
<stop offset="0.864" stop-color="#514F4F" stop-opacity="0.864"/>
<stop offset="1" stop-color="#444444"/>
</linearGradient>
<linearGradient id="paint10_linear_43_247" x1="389.847" y1="254.431" x2="385.901" y2="335.727" gradientUnits="userSpaceOnUse">
<stop stop-color="#E6E6E6"/>
<stop offset="1" stop-color="#999999"/>
</linearGradient>
<linearGradient id="paint11_linear_43_247" x1="395.914" y1="296.504" x2="372.276" y2="331.431" gradientUnits="userSpaceOnUse">
<stop stop-color="#766E6E" stop-opacity="0"/>
<stop offset="0.281" stop-color="#716B6B" stop-opacity="0.281"/>
<stop offset="0.571" stop-color="#656060" stop-opacity="0.571"/>
<stop offset="0.864" stop-color="#514F4F" stop-opacity="0.864"/>
<stop offset="1" stop-color="#444444"/>
</linearGradient>
<linearGradient id="paint12_linear_43_247" x1="157.57" y1="253.92" x2="325.943" y2="422.294" gradientUnits="userSpaceOnUse">
<stop stop-color="#E6E6E6"/>
<stop offset="1" stop-color="#999999"/>
</linearGradient>
<linearGradient id="paint13_linear_43_247" x1="338.649" y1="434.999" x2="170.94" y2="267.289" gradientUnits="userSpaceOnUse">
<stop stop-color="#E6E6E6"/>
<stop offset="1" stop-color="#999999"/>
</linearGradient>
<linearGradient id="paint14_linear_43_247" x1="176.581" y1="272.931" x2="307.309" y2="403.659" gradientUnits="userSpaceOnUse">
<stop stop-color="#E6E6E6"/>
<stop offset="1" stop-color="#999999"/>
</linearGradient>
<linearGradient id="paint15_linear_43_247" x1="256" y1="399.062" x2="256" y2="503.851" gradientUnits="userSpaceOnUse">
<stop stop-color="#766E6E" stop-opacity="0"/>
<stop offset="0.281" stop-color="#716B6B" stop-opacity="0.281"/>
<stop offset="0.571" stop-color="#656060" stop-opacity="0.571"/>
<stop offset="0.864" stop-color="#514F4F" stop-opacity="0.864"/>
<stop offset="1" stop-color="#444444"/>
</linearGradient>
<linearGradient id="paint16_linear_43_247" x1="351.617" y1="435.32" x2="219.768" y2="352.328" gradientUnits="userSpaceOnUse">
<stop stop-color="#766E6E" stop-opacity="0"/>
<stop offset="0.281" stop-color="#716B6B" stop-opacity="0.281"/>
<stop offset="0.571" stop-color="#656060" stop-opacity="0.571"/>
<stop offset="0.864" stop-color="#514F4F" stop-opacity="0.864"/>
<stop offset="1" stop-color="#444444"/>
</linearGradient>
<linearGradient id="paint17_linear_43_247" x1="222.744" y1="322.004" x2="282.715" y2="381.973" gradientUnits="userSpaceOnUse">
<stop stop-color="#F9F5F3"/>
<stop offset="1" stop-color="#D8E8F0"/>
</linearGradient>
<linearGradient id="paint18_linear_43_247" x1="291.933" y1="338.355" x2="209.047" y2="372.621" gradientUnits="userSpaceOnUse">
<stop stop-color="#678D98" stop-opacity="0"/>
<stop offset="0.996" stop-color="#678D98" stop-opacity="0.996"/>
<stop offset="1" stop-color="#678D98"/>
</linearGradient>
<linearGradient id="paint19_linear_43_247" x1="270.292" y1="367.771" x2="224.913" y2="348.322" gradientUnits="userSpaceOnUse">
<stop stop-color="#678D98" stop-opacity="0"/>
<stop offset="0.996" stop-color="#678D98" stop-opacity="0.996"/>
<stop offset="1" stop-color="#678D98"/>
</linearGradient>
<linearGradient id="paint20_linear_43_247" x1="241.708" y1="367.771" x2="287.088" y2="348.322" gradientUnits="userSpaceOnUse">
<stop stop-color="#678D98" stop-opacity="0"/>
<stop offset="0.996" stop-color="#678D98" stop-opacity="0.996"/>
<stop offset="1" stop-color="#678D98"/>
</linearGradient>
<linearGradient id="paint21_linear_43_247" x1="242.717" y1="370.047" x2="271.889" y2="323.163" gradientUnits="userSpaceOnUse">
<stop stop-color="#678D98" stop-opacity="0"/>
<stop offset="0.996" stop-color="#678D98" stop-opacity="0.996"/>
<stop offset="1" stop-color="#678D98"/>
</linearGradient>
<linearGradient id="paint22_linear_43_247" x1="267.046" y1="364.126" x2="264.616" y2="318.284" gradientUnits="userSpaceOnUse">
<stop stop-color="#678D98" stop-opacity="0"/>
<stop offset="0.996" stop-color="#678D98" stop-opacity="0.996"/>
<stop offset="1" stop-color="#678D98"/>
</linearGradient>
<linearGradient id="paint23_linear_43_247" x1="334.671" y1="284.905" x2="273.098" y2="177.151" gradientUnits="userSpaceOnUse">
<stop stop-color="#766E6E" stop-opacity="0"/>
<stop offset="0.281" stop-color="#716B6B" stop-opacity="0.281"/>
<stop offset="0.571" stop-color="#656060" stop-opacity="0.571"/>
<stop offset="0.864" stop-color="#514F4F" stop-opacity="0.864"/>
<stop offset="1" stop-color="#444444"/>
</linearGradient>
<linearGradient id="paint24_linear_43_247" x1="263.14" y1="56.8979" x2="302.795" y2="120.145" gradientUnits="userSpaceOnUse">
<stop stop-color="#F9F5F3"/>
<stop offset="1" stop-color="#D8E8F0"/>
</linearGradient>
<linearGradient id="paint25_linear_43_247" x1="223.586" y1="-20.7012" x2="346.734" y2="120.516" gradientUnits="userSpaceOnUse">
<stop stop-color="#B3DAFE"/>
<stop offset="1" stop-color="#0182FC"/>
</linearGradient>
<linearGradient id="paint26_linear_43_247" x1="256" y1="66.7604" x2="256" y2="33.5969" gradientUnits="userSpaceOnUse">
<stop stop-color="#0182FC" stop-opacity="0"/>
<stop offset="0.126" stop-color="#017FF3" stop-opacity="0.126"/>
<stop offset="0.331" stop-color="#0176DB" stop-opacity="0.331"/>
<stop offset="0.588" stop-color="#0268B4" stop-opacity="0.588"/>
<stop offset="0.886" stop-color="#02547E" stop-opacity="0.886"/>
<stop offset="1" stop-color="#024C67"/>
</linearGradient>
<linearGradient id="paint27_linear_43_247" x1="197.426" y1="2.11219" x2="320.573" y2="143.33" gradientUnits="userSpaceOnUse">
<stop stop-color="#B3DAFE"/>
<stop offset="1" stop-color="#0182FC"/>
</linearGradient>
<linearGradient id="paint28_linear_43_247" x1="294.144" y1="107.425" x2="311.281" y2="124.562" gradientUnits="userSpaceOnUse">
<stop stop-color="#0182FC" stop-opacity="0"/>
<stop offset="0.126" stop-color="#017FF3" stop-opacity="0.126"/>
<stop offset="0.331" stop-color="#0176DB" stop-opacity="0.331"/>
<stop offset="0.588" stop-color="#0268B4" stop-opacity="0.588"/>
<stop offset="0.886" stop-color="#02547E" stop-opacity="0.886"/>
<stop offset="1" stop-color="#024C67"/>
</linearGradient>
<linearGradient id="paint29_linear_43_247" x1="217.856" y1="107.425" x2="200.719" y2="124.562" gradientUnits="userSpaceOnUse">
<stop stop-color="#0182FC" stop-opacity="0"/>
<stop offset="0.126" stop-color="#017FF3" stop-opacity="0.126"/>
<stop offset="0.331" stop-color="#0176DB" stop-opacity="0.331"/>
<stop offset="0.588" stop-color="#0268B4" stop-opacity="0.588"/>
<stop offset="0.886" stop-color="#02547E" stop-opacity="0.886"/>
<stop offset="1" stop-color="#024C67"/>
</linearGradient>
<linearGradient id="paint30_linear_43_247" x1="343.026" y1="178.308" x2="137.162" y2="-27.556" gradientUnits="userSpaceOnUse">
<stop stop-color="#E6E6E6"/>
<stop offset="1" stop-color="#999999"/>
</linearGradient>
<linearGradient id="paint31_linear_43_247" x1="256" y1="81.9869" x2="256" y2="222.575" gradientUnits="userSpaceOnUse">
<stop stop-color="#E6E6E6"/>
<stop offset="1" stop-color="#999999"/>
</linearGradient>
<linearGradient id="paint32_linear_43_247" x1="256" y1="163.639" x2="256" y2="209.864" gradientUnits="userSpaceOnUse">
<stop stop-color="#766E6E" stop-opacity="0"/>
<stop offset="0.281" stop-color="#716B6B" stop-opacity="0.281"/>
<stop offset="0.571" stop-color="#656060" stop-opacity="0.571"/>
<stop offset="0.864" stop-color="#514F4F" stop-opacity="0.864"/>
<stop offset="1" stop-color="#444444"/>
</linearGradient>
<linearGradient id="paint33_linear_43_247" x1="303.453" y1="137.466" x2="275.343" y2="166.078" gradientUnits="userSpaceOnUse">
<stop stop-color="#766E6E" stop-opacity="0"/>
<stop offset="0.281" stop-color="#716B6B" stop-opacity="0.281"/>
<stop offset="0.571" stop-color="#656060" stop-opacity="0.571"/>
<stop offset="0.864" stop-color="#514F4F" stop-opacity="0.864"/>
<stop offset="1" stop-color="#444444"/>
</linearGradient>
<linearGradient id="paint34_linear_43_247" x1="234.416" y1="169.16" x2="287.654" y2="222.398" gradientUnits="userSpaceOnUse">
<stop stop-color="#F9F5F3"/>
<stop offset="1" stop-color="#D8E8F0"/>
</linearGradient>
<linearGradient id="paint35_linear_43_247" x1="271.31" y1="206.054" x2="244.956" y2="179.7" gradientUnits="userSpaceOnUse">
<stop stop-color="#F9F5F3"/>
<stop offset="1" stop-color="#D8E8F0"/>
</linearGradient>
<linearGradient id="paint36_linear_43_247" x1="256" y1="11.3774" x2="256" y2="32.2972" gradientUnits="userSpaceOnUse">
<stop stop-color="#E6E6E6"/>
<stop offset="1" stop-color="#999999"/>
</linearGradient>
<clipPath id="clip0_43_247">
<rect width="512" height="512" fill="white"/>
</clipPath>
</defs>
</svg>
