<svg width="512" height="512" viewBox="0 0 512 512" fill="none" xmlns="http://www.w3.org/2000/svg">
<g clip-path="url(#clip0_42_43)">
<path d="M498.842 205.767C485.777 192.681 466.056 190.511 450.554 198.825C432.287 173.022 411.276 147.998 387.665 124.407C364.053 100.795 339.029 79.7848 313.226 61.4967C321.499 45.9538 319.144 26.0687 305.055 11.9797C289.102 -3.99325 263.095 -3.99325 247.101 11.9797L111.678 147.383C95.7048 163.356 95.7048 189.364 111.719 205.378L112.927 206.586C120.914 214.573 131.419 218.566 141.904 218.566C148.58 218.566 155.194 216.764 161.236 213.528C173.093 230.279 186.138 246.682 200.329 262.615C122.265 325.688 25.4848 412.476 15.4088 422.551C-5.0282 442.968 -5.0282 476.225 15.4088 496.662C25.6278 506.88 39.0408 512 52.4538 512C65.8668 512 79.3008 506.88 89.5198 496.662C99.5948 486.566 186.362 389.785 249.436 311.722C265.368 325.934 281.771 338.979 298.543 350.836C290.208 366.359 292.399 386.059 305.465 399.104L306.694 400.353L306.715 400.373C314.702 408.36 325.207 412.373 335.712 412.373C346.197 412.373 356.702 408.359 364.689 400.373L500.091 264.97C516.064 248.996 516.064 222.989 498.842 205.767ZM156.73 191.657C156.587 191.8 156.525 191.985 156.382 192.108C148.375 200.095 135.371 200.095 127.405 192.087L126.156 190.858C118.169 182.871 118.169 169.847 126.156 161.861L261.579 26.4578C265.429 22.6077 270.446 20.6007 275.648 20.6007C281.239 20.6007 287.034 22.9148 291.805 27.6868C299.812 35.6937 299.812 48.6978 291.805 56.7048L279.989 68.5208L156.73 191.657ZM75.0418 482.183C62.5708 494.613 42.3378 494.613 29.8868 482.183C17.4358 469.732 17.4358 449.479 29.8868 437.028C39.8598 427.055 136.477 340.452 214.172 277.747C217.428 281.187 220.746 284.587 224.084 287.945L224.105 287.966C227.422 291.283 230.801 294.54 234.324 297.898C171.618 375.573 85.0148 472.19 75.0418 482.183ZM238.582 273.488C215.401 250.286 194.697 225.794 176.922 200.544L300.243 77.2237C325.534 95.0197 350.026 115.703 373.187 138.884C396.348 162.025 417.052 186.537 434.847 211.807L373.186 273.467L311.526 335.128C286.276 317.353 261.764 296.65 238.582 273.488ZM485.613 250.491L350.21 385.894C342.203 393.881 329.199 393.901 321.192 385.894L319.963 384.665C311.976 376.658 311.976 363.654 319.963 355.647L454.977 220.633L455.038 220.674C455.181 220.551 455.263 220.367 455.386 220.244C459.236 216.394 464.253 214.408 469.434 214.408C475.025 214.408 480.84 216.702 485.612 221.473C493.62 229.481 493.62 242.484 485.613 250.491Z" fill="white"/>
<path d="M156.321 191.657C156.178 191.8 156.116 191.985 155.973 192.108C147.966 200.095 134.962 200.095 126.996 192.087L125.747 190.858C117.76 182.871 117.76 169.847 125.747 161.861L261.17 26.4578C265.02 22.6077 270.037 20.6007 275.239 20.6007C280.83 20.6007 286.625 22.9148 291.396 27.6868C299.403 35.6937 299.403 48.6978 291.396 56.7048L279.58 68.5208L217.951 130.089L156.321 191.657ZM485.204 250.491L349.801 385.894C341.794 393.881 328.79 393.901 320.783 385.894L319.554 384.665C311.567 376.658 311.567 363.654 319.554 355.647L454.568 220.633L454.629 220.674C454.772 220.551 454.854 220.367 454.977 220.244C458.827 216.394 463.844 214.408 469.025 214.408C474.616 214.408 480.431 216.702 485.203 221.473C493.211 229.481 493.211 242.484 485.204 250.491Z" fill="#FCCB32"/>
</g>
<defs>
<clipPath id="clip0_42_43">
<rect width="512" height="512" fill="white"/>
</clipPath>
</defs>
</svg>
