<svg width="512" height="512" viewBox="0 0 512 512" fill="none" xmlns="http://www.w3.org/2000/svg">
<g clip-path="url(#clip0_42_2)">
<path d="M256 512C397.385 512 512 397.385 512 256C512 114.615 397.385 0 256 0C114.615 0 0 114.615 0 256C0 397.385 114.615 512 256 512Z" fill="#FCCB32"/>
<path d="M190.587 371.484L322.221 503.118C431.243 474.045 512 374.714 512 256.001V248.733L408.631 153.439L190.587 371.484Z" fill="#FCAB32"/>
<path d="M262.461 313.337C273.767 324.643 273.767 344.025 262.461 355.331L239.041 378.75C227.735 390.056 208.353 390.056 197.047 378.75L94.4858 275.381C83.1798 264.075 83.1798 244.693 94.4858 233.387L117.905 209.968C129.211 198.662 148.593 198.662 159.899 209.968L262.461 313.337Z" fill="white"/>
<path d="M352.101 134.864C363.407 123.558 382.789 123.558 394.095 134.864L417.514 158.284C428.82 169.59 428.82 188.972 417.514 200.277L239.849 377.136C228.543 388.442 209.161 388.442 197.855 377.136L174.435 353.716C163.129 342.41 163.129 323.028 174.435 311.722L352.101 134.864Z" fill="white"/>
</g>
<defs>
<clipPath id="clip0_42_2">
<rect width="512" height="512" fill="white"/>
</clipPath>
</defs>
</svg>
