<svg width="512" height="512" viewBox="0 0 512 512" fill="none" xmlns="http://www.w3.org/2000/svg">
<path d="M256 312C291.28 312 320 286.88 320 256C320 225.12 291.28 200 256 200C220.72 200 192 225.12 192 256C192 286.88 220.72 312 256 312ZM256 216C282.48 216 304 233.92 304 256C304 278.08 282.48 296 256 296C229.52 296 208 278.08 208 256C208 233.92 229.52 216 256 216Z" fill="#FCCB32"/>
<path d="M440 56H72C61.3913 56 51.2172 60.2143 43.7157 67.7157C36.2143 75.2172 32 85.3913 32 96V184C32 194.609 36.2143 204.783 43.7157 212.284C51.2172 219.786 61.3913 224 72 224H128V440C128 450.609 132.214 460.783 139.716 468.284C147.217 475.786 157.391 480 168 480H344C349.253 480 354.454 478.965 359.307 476.955C364.16 474.945 368.57 471.999 372.284 468.284C375.999 464.57 378.945 460.16 380.955 455.307C382.965 450.454 384 445.253 384 440V224H440C450.609 224 460.783 219.786 468.284 212.284C475.786 204.783 480 194.609 480 184V96C480 85.3913 475.786 75.2172 468.284 67.7157C460.783 60.2143 450.609 56 440 56ZM128 152H112V128H128V152ZM368 440C368 446.365 365.471 452.47 360.971 456.971C356.47 461.471 350.365 464 344 464H168C161.635 464 155.53 461.471 151.029 456.971C146.529 452.47 144 446.365 144 440V128H160V408C160 410.122 160.843 412.157 162.343 413.657C163.843 415.157 165.878 416 168 416C174.365 416 180.47 418.529 184.971 423.029C189.471 427.53 192 433.635 192 440C192 442.122 192.843 444.157 194.343 445.657C195.843 447.157 197.878 448 200 448H312C314.122 448 316.157 447.157 317.657 445.657C319.157 444.157 320 442.122 320 440C320 433.635 322.529 427.53 327.029 423.029C331.53 418.529 337.635 416 344 416C346.122 416 348.157 415.157 349.657 413.657C351.157 412.157 352 410.122 352 408V128H368V440ZM336 128V400.8C328.313 402.368 321.256 406.161 315.709 411.709C310.161 417.256 306.368 424.313 304.8 432H207.2C205.632 424.313 201.839 417.256 196.291 411.709C190.744 406.161 183.687 402.368 176 400.8V128H336ZM400 128V152H384V128H400ZM464 184C464 190.365 461.471 196.47 456.971 200.971C452.47 205.471 446.365 208 440 208H384V168H408C410.122 168 412.157 167.157 413.657 165.657C415.157 164.157 416 162.122 416 160V120C416 117.878 415.157 115.843 413.657 114.343C412.157 112.843 410.122 112 408 112H104C101.878 112 99.8434 112.843 98.3431 114.343C96.8429 115.843 96 117.878 96 120V160C96 162.122 96.8429 164.157 98.3431 165.657C99.8434 167.157 101.878 168 104 168H128V208H72C65.6348 208 59.5303 205.471 55.0294 200.971C50.5286 196.47 48 190.365 48 184V96C48 89.6348 50.5286 83.5303 55.0294 79.0294C59.5303 74.5286 65.6348 72 72 72H440C446.365 72 452.47 74.5286 456.971 79.0294C461.471 83.5303 464 89.6348 464 96V184Z" fill="white"/>
</svg>
